<svg width="1094" height="756" viewBox="0 0 1094 756" fill="none" xmlns="http://www.w3.org/2000/svg">
<g clip-path="url(#clip0_705_6676)">
<path d="M296.193 689.229H29.3257C29.3257 689.229 23.9163 609.89 55.9223 608.988C87.9283 608.087 84.3219 644.15 124.442 594.563C164.562 544.976 213.248 547.681 219.559 576.982C225.87 606.283 207.387 629.724 241.196 622.512C275.006 615.299 323.691 634.232 296.193 689.229Z" fill="#2631FF"/>
<path d="M158.252 689.246L157.352 689.21C159.452 636.974 170.392 603.412 179.2 584.456C188.763 563.872 197.978 555.54 198.07 555.458L198.669 556.132C198.578 556.213 189.47 564.463 179.984 584.906C171.225 603.783 160.345 637.207 158.252 689.246Z" fill="#F2F2F2"/>
<path d="M254.838 689.354L253.973 689.102C264.395 653.331 288.937 630.746 289.183 630.521L289.789 631.189C289.544 631.411 265.186 653.837 254.838 689.354Z" fill="#F2F2F2"/>
<path d="M71.3554 689.29L70.4622 689.166C73.9981 663.665 67.6111 643.88 61.6302 631.773C55.1543 618.664 47.7654 611.504 47.6914 611.433L48.3152 610.782C48.3903 610.854 55.8934 618.124 62.4384 631.373C68.4752 643.594 74.9228 663.562 71.3554 689.29Z" fill="#F2F2F2"/>
<path d="M332.41 690.435H0.539678L0.463117 689.311C0.272317 686.514 -3.96122 620.547 17.4131 597.01C22.1914 591.748 27.9472 588.986 34.5204 588.801C48.453 588.405 57.2086 593.623 64.2706 597.812C77.5813 605.709 86.3746 610.926 118.346 571.41C152.981 528.602 190.351 519.392 211.834 524.513C225.714 527.823 235.28 537.176 238.08 550.175C240.732 562.484 239.887 574.05 239.209 583.343C238.483 593.287 237.909 601.141 241.993 604.7C245.402 607.67 252.207 607.94 263.406 605.55C286.186 600.69 317.972 604.848 333.926 625.462C342.51 636.552 349.271 656.711 332.743 689.768L332.41 690.435ZM2.80455 688.023H330.916C343.233 663.034 343.617 641.924 332.019 626.938C317.383 608.028 286.678 603.051 263.909 607.909C251.742 610.505 244.491 610.076 240.408 606.518C235.415 602.168 236.028 593.783 236.803 583.168C237.47 574.028 238.301 562.654 235.723 550.683C233.126 538.628 224.215 529.945 211.274 526.86C190.477 521.898 154.151 530.991 120.221 572.927C86.9394 614.062 76.9135 608.117 63.0404 599.887C55.8913 595.647 47.774 590.838 34.5888 591.212C28.6963 591.378 23.5188 593.874 19.1987 598.631C-0.0115337 619.785 2.33402 679.104 2.80455 688.023Z" fill="#CFCCE0"/>
<path d="M1047.19 689.229H780.326C780.326 689.229 774.916 609.89 806.922 608.988C838.928 608.087 835.322 644.15 875.442 594.563C915.562 544.976 964.248 547.681 970.559 576.982C976.87 606.283 958.387 629.724 992.196 622.512C1026.01 615.299 1074.69 634.232 1047.19 689.229Z" fill="#2631FF"/>
<path d="M909.252 689.246L908.352 689.21C910.452 636.974 921.392 603.412 930.2 584.456C939.763 563.872 948.978 555.54 949.07 555.458L949.669 556.132C949.578 556.213 940.471 564.463 930.984 584.906C922.225 603.783 911.345 637.207 909.252 689.246Z" fill="#F2F2F2"/>
<path d="M1005.84 689.354L1004.97 689.102C1015.39 653.331 1039.94 630.746 1040.18 630.521L1040.79 631.189C1040.54 631.411 1016.19 653.837 1005.84 689.354Z" fill="#F2F2F2"/>
<path d="M822.355 689.29L821.462 689.166C824.998 663.665 818.611 643.88 812.63 631.773C806.154 618.664 798.765 611.504 798.691 611.433L799.315 610.782C799.39 610.854 806.893 618.124 813.438 631.373C819.475 643.594 825.923 663.562 822.355 689.29Z" fill="#F2F2F2"/>
<path d="M1083.41 690.435H751.54L751.463 689.311C751.272 686.514 747.039 620.547 768.413 597.01C773.191 591.748 778.947 588.986 785.52 588.801C799.453 588.405 808.209 593.623 815.271 597.812C828.581 605.709 837.375 610.926 869.346 571.41C903.981 528.602 941.351 519.392 962.834 524.513C976.714 527.823 986.28 537.176 989.08 550.175C991.732 562.484 990.887 574.05 990.209 583.343C989.483 593.287 988.909 601.141 992.993 604.7C996.402 607.67 1003.21 607.94 1014.41 605.55C1037.19 600.69 1068.97 604.848 1084.93 625.462C1093.51 636.552 1100.27 656.711 1083.74 689.768L1083.41 690.435ZM753.805 688.023H1081.92C1094.23 663.034 1094.62 641.924 1083.02 626.938C1068.38 608.028 1037.68 603.051 1014.91 607.909C1002.74 610.505 995.491 610.076 991.408 606.518C986.415 602.168 987.028 593.783 987.803 583.168C988.47 574.028 989.301 562.654 986.723 550.683C984.126 538.628 975.215 529.945 962.274 526.86C941.477 521.898 905.151 530.991 871.221 572.927C837.939 614.062 827.914 608.117 814.04 599.887C806.891 595.647 798.774 590.838 785.589 591.212C779.696 591.378 774.519 593.874 770.199 598.631C750.988 619.785 753.334 679.104 753.805 688.023V688.023Z" fill="#CFCCE0"/>
<path d="M514.323 463.927C490.933 463.927 470.423 488.357 459.113 524.837C458.313 527.397 457.563 530.027 456.863 532.697C452.1 551.398 449.734 570.629 449.823 589.927C449.823 659.407 478.753 715.927 514.323 715.927C549.893 715.927 578.823 659.407 578.823 589.927C578.823 520.447 549.893 463.927 514.323 463.927ZM514.323 713.927C479.863 713.927 451.823 658.297 451.823 589.927C451.73 570.547 454.126 551.236 458.953 532.467C459.613 529.957 460.319 527.497 461.073 525.087C472.083 489.617 491.833 465.927 514.323 465.927C548.783 465.927 576.823 521.557 576.823 589.927C576.823 658.297 548.783 713.927 514.323 713.927Z" fill="white"/>
<path d="M529.82 662.777C517.483 662.777 507.82 630.777 507.82 589.927C507.82 549.076 517.483 517.076 529.82 517.076C542.157 517.076 551.82 549.076 551.82 589.927C551.82 630.777 542.157 662.777 529.82 662.777ZM529.82 519.076C518.979 519.076 509.82 551.521 509.82 589.927C509.82 628.332 518.979 660.777 529.82 660.777C540.661 660.777 549.82 628.332 549.82 589.927C549.82 551.521 540.661 519.076 529.82 519.076V519.076Z" fill="white"/>
<path d="M532.32 606.659C537.015 606.659 540.82 599.168 540.82 589.927C540.82 580.686 537.015 573.194 532.32 573.194C527.626 573.194 523.82 580.686 523.82 589.927C523.82 599.168 527.626 606.659 532.32 606.659Z" fill="#CFCCE0"/>
<path d="M513.82 362.926L650.82 362.426V416.399L513.82 421.926V362.926Z" fill="white"/>
<path d="M396.82 545.981L394.824 545.872L400.876 435.926H524.822V437.926H402.769L396.82 545.981Z" fill="white"/>
<path d="M396.613 723.905L326.613 711.905L327.028 709.948L397.028 721.948L396.613 723.905Z" fill="white"/>
<path d="M410.903 746.93L410.738 748.924L495.738 755.924L495.903 753.93L410.903 746.93Z" fill="white"/>
<path d="M608.07 546.086C607.32 548.496 606.614 550.956 605.95 553.466L603.86 553.696L538.82 560.926L389.82 545.926L544.82 537.926L606.11 545.836L608.07 546.086Z" fill="white"/>
<path d="M573.999 188.235C573.999 188.235 552.341 180.5 538.417 211.44C524.494 242.381 502.836 276.415 502.836 276.415L515.212 279.509C515.212 279.509 518.306 257.851 526.041 254.757L522.947 282.603C522.947 282.603 615.768 315.091 657.538 279.509L655.991 268.68C655.991 268.68 662.179 270.227 662.179 279.509L666.82 274.868C666.82 274.868 662.179 265.586 648.256 253.21C639.117 245.087 635.977 229.632 634.898 219.97C634.089 211.902 630.861 204.267 625.637 198.065C616.384 187.342 599.525 175.945 573.999 188.235Z" fill="#2F2E41"/>
<path d="M454.323 217.427L445.323 123.427C445.323 123.427 427.323 72.4267 454.323 76.4267C481.323 80.4267 465.323 119.427 465.323 119.427L480.323 217.427H454.323Z" fill="#FF6B00"/>
<path d="M384.32 644.426L374.32 678.426L393.32 694.426L407.32 651.426L384.32 644.426Z" fill="#FFB9B9"/>
<path d="M461.32 669.426L451.32 705.426L486.32 727.426C486.32 727.426 487.32 686.426 492.32 678.426L461.32 669.426Z" fill="#FFB9B9"/>
<path d="M504.32 477.427L499.32 487.427C499.32 487.427 442.32 461.427 427.32 497.427C412.32 533.427 379.32 647.427 379.32 647.427L408.32 659.427L461.32 538.427L582.32 535.427L587.32 468.427L504.32 477.427Z" fill="#2F2E41"/>
<path d="M546.321 494.427C546.321 494.427 464.321 477.427 458.321 518.427C452.321 559.427 461.321 637.427 462.321 639.427C463.321 641.427 458.321 678.427 458.321 678.427L494.321 683.427C494.321 683.427 517.321 574.427 507.321 546.427L574.98 542.242C598.336 540.797 617.416 522.347 618.759 498.985C619.273 490.043 617.035 481.927 609.321 477.427C585.321 463.427 541.321 463.427 541.321 463.427L546.321 494.427Z" fill="#2F2E41"/>
<path d="M387.322 677.427C387.322 677.427 380.322 662.427 370.322 669.427C360.322 676.427 337.322 691.427 337.322 691.427C337.322 691.427 301.743 703.955 333.322 712.427C361.411 719.962 368.322 718.427 368.322 718.427C368.322 718.427 391.322 722.427 394.322 720.427C397.322 718.427 399.322 686.427 399.322 686.427C399.322 686.427 385.322 683.427 387.322 677.427Z" fill="#2F2E41"/>
<path d="M465.319 708.426C465.319 708.426 455.319 694.426 448.319 700.426C441.319 706.426 416.319 723.426 416.319 723.426C416.319 723.426 374.319 735.426 411.319 746.426C448.319 757.426 489.319 755.426 490.319 751.426C491.319 747.426 488.319 718.426 488.319 718.426C488.319 718.426 467.319 717.426 465.319 708.426Z" fill="#2F2E41"/>
<path d="M585.32 287.427C605.203 287.427 621.32 271.309 621.32 251.427C621.32 231.545 605.203 215.427 585.32 215.427C565.438 215.427 549.32 231.545 549.32 251.427C549.32 271.309 565.438 287.427 585.32 287.427Z" fill="#FF6B00"/>
<path d="M559.321 267.427C559.321 267.427 557.321 308.427 547.321 311.427C537.321 314.427 509.321 347.427 522.321 357.427C535.321 367.427 610.321 360.427 610.321 360.427L603.321 308.427C603.321 308.427 587.321 297.427 600.321 278.427L559.321 267.427Z" fill="#FF6B00"/>
<path d="M558.323 335.427L551.323 302.427L528.323 293.427L509.323 337.427C509.323 337.427 487.823 479.927 493.823 481.927C497.189 483.115 500.758 483.625 504.323 483.427C504.323 483.427 536.323 473.427 546.323 478.427C556.323 483.427 608.323 487.427 608.323 487.427C608.323 487.427 644.323 468.427 642.323 451.427C640.323 434.427 642.323 339.427 642.323 339.427L637.823 296.927L598.366 303.099L558.323 335.427Z" fill="#CFCCE0"/>
<path d="M529.32 298.426L528.32 292.426L500.32 258.426L484.32 201.426L445.32 216.426L473.32 285.426L513.32 336.426L529.32 298.426Z" fill="#CFCCE0"/>
<path d="M538.028 255.731C538.028 255.731 550.404 238.714 561.233 235.62C572.062 232.526 573.609 217.056 573.609 217.056C573.609 217.056 601.455 247.996 618.473 249.543C635.49 251.09 620.02 212.415 620.02 212.415L589.079 204.68L559.686 207.774L536.48 223.244L538.028 255.731Z" fill="#2F2E41"/>
<path d="M653.821 486.96L652.853 445.926H559.794L556.82 555.954L554.82 555.899L557.847 443.926H654.787L654.819 444.892L655.819 486.892L653.821 486.96Z" fill="white"/>
<path d="M651.82 430.926H649.82V354.595L682.1 363.966L681.541 365.887L651.82 357.258V430.926Z" fill="white"/>
<path d="M661.323 484.927C637.933 484.927 617.423 509.357 606.113 545.837C605.313 548.397 604.563 551.027 603.863 553.697C599.1 572.398 596.734 591.629 596.823 610.927C596.823 680.407 625.753 736.927 661.323 736.927C696.893 736.927 725.823 680.407 725.823 610.927C725.823 541.447 696.893 484.927 661.323 484.927ZM661.323 734.927C626.863 734.927 598.823 679.297 598.823 610.927C598.73 591.547 601.126 572.236 605.953 553.467C606.613 550.957 607.319 548.497 608.073 546.087C619.083 510.617 638.833 486.927 661.323 486.927C695.783 486.927 723.823 542.557 723.823 610.927C723.823 679.297 695.783 734.927 661.323 734.927Z" fill="white"/>
<path d="M676.82 683.777C664.483 683.777 654.82 651.777 654.82 610.927C654.82 570.076 664.483 538.076 676.82 538.076C689.157 538.076 698.82 570.076 698.82 610.927C698.82 651.777 689.157 683.777 676.82 683.777ZM676.82 540.076C665.979 540.076 656.82 572.521 656.82 610.927C656.82 649.332 665.979 681.777 676.82 681.777C687.661 681.777 696.82 649.332 696.82 610.927C696.82 572.521 687.661 540.076 676.82 540.076V540.076Z" fill="white"/>
<path d="M679.32 627.659C684.015 627.659 687.82 620.168 687.82 610.927C687.82 601.686 684.015 594.194 679.32 594.194C674.626 594.194 670.82 601.686 670.82 610.927C670.82 620.168 674.626 627.659 679.32 627.659Z" fill="#CFCCE0"/>
<path d="M665.82 352.926L686.82 360.926L682.82 371.926L665.82 364.926V352.926Z" fill="white"/>
<path d="M582.82 438.926V454.926H642.401V439.989L582.82 438.926Z" fill="white"/>
<path d="M429.82 430.926V446.926H489.401V431.989L429.82 430.926Z" fill="white"/>
<path d="M538.823 392.104H538.337V378.788C538.337 377.776 538.137 376.774 537.75 375.839C537.363 374.904 536.795 374.054 536.079 373.338C535.364 372.623 534.514 372.055 533.579 371.668C532.644 371.28 531.642 371.081 530.63 371.081H502.418C501.406 371.081 500.404 371.28 499.469 371.668C498.534 372.055 497.684 372.623 496.968 373.338C496.253 374.054 495.685 374.904 495.298 375.839C494.91 376.774 494.711 377.776 494.711 378.788V451.841C494.711 452.853 494.91 453.855 495.298 454.79C495.685 455.725 496.253 456.575 496.968 457.29C497.684 458.006 498.534 458.574 499.469 458.961C500.404 459.348 501.406 459.548 502.418 459.548H530.63C531.642 459.548 532.644 459.348 533.579 458.961C534.514 458.574 535.364 458.006 536.079 457.29C536.795 456.575 537.363 455.725 537.75 454.79C538.137 453.855 538.337 452.853 538.337 451.841V401.583H538.823V392.104Z" fill="white"/>
<path d="M516.764 398.494C519.371 398.494 521.485 396.381 521.485 393.774C521.485 391.166 519.371 389.053 516.764 389.053C514.157 389.053 512.043 391.166 512.043 393.774C512.043 396.381 514.157 398.494 516.764 398.494Z" fill="#D0CDE1"/>
<path d="M636.402 439.89L541.989 438.114C541.989 438.114 489.269 450.182 496.321 423.815C503.373 397.447 540.295 417.789 540.295 417.789L639.366 414.06L636.402 439.89Z" fill="#FF6B00"/>
<path d="M626.82 303.926L635.82 296.926C635.82 296.926 650.82 288.926 653.82 316.926C656.82 344.926 678.82 437.926 656.82 438.926C634.82 439.926 578.82 440.926 578.82 440.926L584.82 409.926L630.82 406.926L626.82 303.926Z" fill="#CFCCE0"/>
<path opacity="0.15" d="M629.82 346.926L626.82 403.926L582.82 412.926L622.82 396.926L629.82 346.926Z" fill="black"/>
<path d="M475.625 141.315H68V49H475.625V141.315ZM70.3978 138.917H473.227V51.3978H70.3978V138.917Z" fill="white"/>
<path d="M145.929 80.1709H100.371V125.729H145.929V80.1709Z" fill="#2631FF"/>
<path d="M139.936 119.735H91.9805V71.7793H139.936V119.735ZM94.3783 117.337H137.539V74.1771H94.3783L94.3783 117.337Z" fill="white"/>
<path d="M428.868 81.3701H215.465V83.7679H428.868V81.3701Z" fill="white"/>
<path d="M428.868 98.1543H215.465V100.552H428.868V98.1543Z" fill="white"/>
<path d="M428.868 114.939H215.465V117.337H428.868V114.939Z" fill="white"/>
</g>
<defs>
<clipPath id="clip0_705_6676">
<rect width="1093.86" height="755.923" rx="25" fill="white"/>
</clipPath>
</defs>
</svg>
