<svg width="125" height="125" viewBox="0 0 125 125" fill="none" xmlns="http://www.w3.org/2000/svg">
<path d="M0 14C0 6.26801 6.26801 0 14 0H111C118.732 0 125 6.26801 125 14V111C125 118.732 118.732 125 111 125H14C6.26801 125 0 118.732 0 111V14Z" fill="#2631FF"/>
<path d="M62.5 80.8333C75.1362 80.8333 85.4167 70.5529 85.4167 57.9167C85.4167 45.2804 75.1362 35 62.5 35C49.8638 35 39.5833 45.2804 39.5833 57.9167C39.5833 70.5529 49.8638 80.8333 62.5 80.8333ZM62.5 39.5833C72.6085 39.5833 80.8333 47.8081 80.8333 57.9167C80.8333 68.0252 72.6085 76.25 62.5 76.25C52.3915 76.25 44.1667 68.0252 44.1667 57.9167C44.1667 47.8081 52.3915 39.5833 62.5 39.5833ZM90 81.9792C90 86.4021 86.4021 90 81.9792 90H43.0208C38.5979 90 35 86.4021 35 81.9792C35 79.4721 36.1963 77.0773 38.1992 75.5694C39.2121 74.8085 40.649 75.0148 41.4075 76.0208C42.1683 77.0315 41.9667 78.4683 40.956 79.2292C40.0829 79.8846 39.5833 80.8883 39.5833 81.9769C39.5833 83.8721 41.1256 85.4144 43.0208 85.4144H81.9792C83.8744 85.4144 85.4167 83.8721 85.4167 81.9769C85.4167 80.886 84.9148 79.8846 84.0417 79.2269C83.031 78.4638 82.8294 77.0269 83.5925 76.0163C84.351 75.0102 85.7902 74.804 86.8008 75.5671C88.8335 77.1025 90 79.4377 90 81.9792ZM67.0833 62.5C67.0833 61.6315 66.4623 60.9004 65.6075 60.756L58.6385 59.5965C55.5631 59.0831 53.3333 56.4477 53.3333 53.3333C53.3333 49.5429 56.4179 46.4583 60.2083 46.4583V44.1667C60.2083 42.8994 61.235 41.875 62.5 41.875C63.765 41.875 64.7917 42.8994 64.7917 44.1667V46.4583H65.4058C67.851 46.4583 70.1335 47.7738 71.3596 49.8935C71.9921 50.9913 71.6185 52.3915 70.5231 53.024C69.43 53.661 68.0275 53.2829 67.3927 52.1898C66.9825 51.4794 66.2217 51.0417 65.4058 51.0417H60.2083C58.9456 51.0417 57.9167 52.0683 57.9167 53.3333C57.9167 54.2019 58.5377 54.9329 59.3925 55.0773L66.3615 56.2369C69.4369 56.7502 71.6667 59.3856 71.6667 62.5C71.6667 66.2904 68.5821 69.375 64.7917 69.375V71.6667C64.7917 72.934 63.765 73.9583 62.5 73.9583C61.235 73.9583 60.2083 72.934 60.2083 71.6667V69.375H59.5942C57.149 69.375 54.8665 68.0596 53.6404 65.9398C53.0079 64.8421 53.3815 63.4419 54.4769 62.8094C55.5677 62.1723 56.9725 62.5504 57.6073 63.6435C58.0175 64.354 58.7783 64.7917 59.5942 64.7917H64.7917C66.0544 64.7917 67.0833 63.765 67.0833 62.5Z" fill="black"/>
</svg>
