<svg width="1116" height="948" viewBox="0 0 1116 948" fill="none" xmlns="http://www.w3.org/2000/svg">
<path d="M6 879L1094.5 7" stroke="#6971FF" stroke-width="17"/>
<path d="M615.664 381.737L756.276 538.394M1060.14 876.926L896.888 695.051M896.888 695.051L1104.47 491.252L907.476 177.159L756.276 538.394M896.888 695.051L756.276 538.394M395.82 564.782L703.167 890.132L745 939" stroke="#6971FF" stroke-width="17"/>
<path d="M181 935L234.223 705.721L621.65 768.053V876.114L894 691" stroke="#6971FF" stroke-width="17"/>
<path d="M484 662L430 709.5M430 709.5L376 757V823M430 709.5L503 733V785V889H376V823M204 818.5L376 823M10.5 873V935.5H105L112.5 860.25M120 785L112.5 860.25M112.5 860.25H196" stroke="#6971FF" stroke-width="17"/>
<path d="M620 806.5L832.5 629L1055 399.5" stroke="#6971FF" stroke-width="17"/>
<path d="M929.5 531.5L951 641" stroke="#6971FF" stroke-width="17"/>
<path d="M741.5 698C742.833 722.5 759.1 771.8 813.5 773L963 929L984.5 798.5L952.5 643.5L949.5 637" stroke="#6971FF" stroke-width="17"/>
<path d="M521.5 701L631.5 609M741.5 517L631.5 609M631.5 609L672.5 667M713.5 725L672.5 667M672.5 667L793.5 585M672.5 667L625.5 706" stroke="#6971FF" stroke-width="17"/>
<path d="M972.5 474L864.836 347.11L860.5 342" stroke="#6971FF" stroke-width="17"/>
<path d="M979 295.5L895 382" stroke="#6971FF" stroke-width="17"/>
<path d="M948.5 442L998 396.5" stroke="#6971FF" stroke-width="17"/>
<path d="M949.5 235L877.5 359.5" stroke="#6971FF" stroke-width="17"/>
<path d="M923 198L1095 202" stroke="#6971FF" stroke-width="17"/>
</svg>
