<svg width="125" height="125" viewBox="0 0 125 125" fill="none" xmlns="http://www.w3.org/2000/svg">
<path d="M0 14C0 6.26801 6.26801 0 14 0H111C118.732 0 125 6.26801 125 14V111C125 118.732 118.732 125 111 125H14C6.26801 125 0 118.732 0 111V14Z" fill="#2631FF"/>
<path fill-rule="evenodd" clip-rule="evenodd" d="M54.3222 40.1047C60.5612 38.5441 64.4387 38.5441 70.6778 40.1047C73.3728 40.7784 76.6694 42.4181 79.3644 43.9513C81.7294 45.2919 83.125 47.8975 83.125 50.7541V81.4062C83.125 82.7738 82.5818 84.0853 81.6148 85.0523C80.6478 86.0193 79.3363 86.5625 77.9688 86.5625H47.0312C46.3541 86.5625 45.6836 86.4291 45.058 86.17C44.4325 85.9109 43.864 85.5311 43.3852 85.0523C42.9064 84.5735 42.5266 84.005 42.2675 83.3795C42.0084 82.7539 41.875 82.0834 41.875 81.4062V50.7541C41.875 47.8975 43.2706 45.2953 45.6356 43.9478C48.3306 42.4181 51.6306 40.7784 54.3222 40.1047ZM71.5097 36.7703C64.7241 35.0687 60.2759 35.0687 53.4938 36.7703C50.3175 37.5609 46.6806 39.4034 43.9375 40.9641C40.3831 42.9819 38.4375 46.7975 38.4375 50.7506V81.4062C38.4375 83.6855 39.3429 85.8713 40.9546 87.4829C42.5662 89.0946 44.752 90 47.0312 90H77.9688C80.248 90 82.4338 89.0946 84.0454 87.4829C85.6571 85.8713 86.5625 83.6855 86.5625 81.4062V50.7541C86.5625 46.8009 84.6203 42.9853 81.0625 40.9606C78.3228 39.4034 74.6859 37.5644 71.5097 36.7669V36.7703ZM52.1875 79.6875C52.1875 80.5992 51.8253 81.4735 51.1807 82.1182C50.536 82.7628 49.6617 83.125 48.75 83.125C47.8383 83.125 46.964 82.7628 46.3193 82.1182C45.6747 81.4735 45.3125 80.5992 45.3125 79.6875C45.3125 78.7758 45.6747 77.9015 46.3193 77.2568C46.964 76.6122 47.8383 76.25 48.75 76.25C49.6617 76.25 50.536 76.6122 51.1807 77.2568C51.8253 77.9015 52.1875 78.7758 52.1875 79.6875ZM52.1875 79.6875C52.1875 78.7758 52.5497 77.9015 53.1943 77.2568C53.839 76.6122 54.7133 76.25 55.625 76.25C56.5367 76.25 57.411 76.6122 58.0557 77.2568C58.7003 77.9015 59.0625 78.7758 59.0625 79.6875C59.0625 80.5992 58.7003 81.4735 58.0557 82.1182C57.411 82.7628 56.5367 83.125 55.625 83.125C54.7133 83.125 53.839 82.7628 53.1943 82.1182C52.5497 81.4735 52.1875 80.5992 52.1875 79.6875ZM76.25 83.125C76.9299 83.125 77.5945 82.9234 78.1598 82.5457C78.7251 82.168 79.1657 81.6311 79.4258 81.003C79.686 80.3749 79.7541 79.6837 79.6214 79.0169C79.4888 78.3501 79.1614 77.7376 78.6807 77.2568C78.1999 76.7761 77.5874 76.4487 76.9206 76.3161C76.2538 76.1834 75.5626 76.2515 74.9345 76.5117C74.3064 76.7718 73.7695 77.2124 73.3918 77.7777C73.0141 78.343 72.8125 79.0076 72.8125 79.6875C72.8125 78.7758 72.4503 77.9015 71.8057 77.2568C71.161 76.6122 70.2867 76.25 69.375 76.25C68.4633 76.25 67.589 76.6122 66.9443 77.2568C66.2997 77.9015 65.9375 78.7758 65.9375 79.6875C65.9375 80.5992 66.2997 81.4735 66.9443 82.1182C67.589 82.7628 68.4633 83.125 69.375 83.125C70.2867 83.125 71.161 82.7628 71.8057 82.1182C72.4503 81.4735 72.8125 80.5992 72.8125 79.6875C72.8125 80.5992 73.1747 81.4735 73.8193 82.1182C74.464 82.7628 75.3383 83.125 76.25 83.125ZM50.4688 52.1875C50.0129 52.1875 49.5757 52.3686 49.2534 52.6909C48.9311 53.0132 48.75 53.4504 48.75 53.9062V60.7812C48.75 61.2371 48.9311 61.6743 49.2534 61.9966C49.5757 62.3189 50.0129 62.5 50.4688 62.5H60.7812V52.1875H50.4688ZM64.2188 52.1875V62.5H74.5312C74.9871 62.5 75.4243 62.3189 75.7466 61.9966C76.0689 61.6743 76.25 61.2371 76.25 60.7812V53.9062C76.25 53.4504 76.0689 53.0132 75.7466 52.6909C75.4243 52.3686 74.9871 52.1875 74.5312 52.1875H64.2188ZM45.3125 53.9062C45.3125 52.5387 45.8557 51.2272 46.8227 50.2602C47.7897 49.2932 49.1012 48.75 50.4688 48.75H74.5312C75.8988 48.75 77.2103 49.2932 78.1773 50.2602C79.1443 51.2272 79.6875 52.5387 79.6875 53.9062V60.7812C79.6875 62.1488 79.1443 63.4603 78.1773 64.4273C77.2103 65.3943 75.8988 65.9375 74.5312 65.9375H50.4688C49.1012 65.9375 47.7897 65.3943 46.8227 64.4273C45.8557 63.4603 45.3125 62.1488 45.3125 60.7812V53.9062ZM57.3438 41.875C56.8879 41.875 56.4507 42.0561 56.1284 42.3784C55.8061 42.7007 55.625 43.1379 55.625 43.5938C55.625 44.0496 55.8061 44.4868 56.1284 44.8091C56.4507 45.1314 56.8879 45.3125 57.3438 45.3125H67.6562C68.1121 45.3125 68.5493 45.1314 68.8716 44.8091C69.1939 44.4868 69.375 44.0496 69.375 43.5938C69.375 43.1379 69.1939 42.7007 68.8716 42.3784C68.5493 42.0561 68.1121 41.875 67.6562 41.875H57.3438Z" fill="black"/>
</svg>
