<svg width="68" height="67" viewBox="0 0 68 67" fill="none" xmlns="http://www.w3.org/2000/svg">
<rect width="68" height="67" rx="5" fill="black"/>
<path d="M2.6875 46V22H19.4219V26.7109H8.48828V31.6328H18.5664V36.3555H8.48828V41.2891H19.4219V46H2.6875ZM28.9258 22L33.3086 29.582H33.4961L37.9258 22H44.418L37.1758 34L44.6523 46H37.9961L33.4961 38.3359H33.3086L28.8086 46H22.1992L29.6406 34L22.3867 22H28.9258ZM47.418 46V22H57.332C59.1289 22 60.6797 22.3516 61.9844 23.0547C63.2969 23.75 64.3086 24.7227 65.0195 25.9727C65.7305 27.2148 66.0859 28.6602 66.0859 30.3086C66.0859 31.9648 65.7227 33.4141 64.9961 34.6562C64.2773 35.8906 63.25 36.8477 61.9141 37.5273C60.5781 38.207 58.9922 38.5469 57.1563 38.5469H51.0391V33.9766H56.0781C56.9531 33.9766 57.6836 33.8242 58.2695 33.5195C58.8633 33.2148 59.3125 32.7891 59.6172 32.2422C59.9219 31.6875 60.0742 31.043 60.0742 30.3086C60.0742 29.5664 59.9219 28.9258 59.6172 28.3867C59.3125 27.8398 58.8633 27.418 58.2695 27.1211C57.6758 26.8242 56.9453 26.6758 56.0781 26.6758H53.2188V46H47.418Z" fill="white"/>
</svg>
