<svg width="125" height="125" viewBox="0 0 125 125" fill="none" xmlns="http://www.w3.org/2000/svg">
<path d="M0 14C0 6.26801 6.26801 0 14 0H111C118.732 0 125 6.26801 125 14V111C125 118.732 118.732 125 111 125H14C6.26801 125 0 118.732 0 111V14Z" fill="#2631FF"/>
<path d="M85.6171 57.8542V44.6033C85.6218 43.2523 85.2186 41.93 84.458 40.8025C83.6975 39.6751 82.6135 38.7926 81.3422 38.266C72.7245 33.9033 51.5592 33.9194 42.9649 38.266C41.6941 38.7929 40.6106 39.6756 39.8505 40.803C39.0904 41.9305 38.6875 43.2525 38.6925 44.6033V57.8542H34V64.7426C34 65.9605 34.4944 67.1286 35.3744 67.9898C36.2544 68.851 37.4479 69.3349 38.6925 69.3349V85.4077H43.3849V90H55.1161V85.4077H69.1935V90H80.9246V85.4077H85.6171V69.3349C86.8616 69.3349 88.0551 68.851 88.9351 67.9898C89.8151 67.1286 90.3095 65.9605 90.3095 64.7426V57.8542H85.6171ZM64.501 64.7426V50.9658H80.9246V64.7426H64.501ZM43.3849 64.7426V50.9658H59.8085V64.7426H43.3849ZM44.7927 42.4977C50.3176 40.373 56.2202 39.3488 62.1548 39.4852C68.0894 39.348 73.9922 40.3722 79.5169 42.4977C79.9376 42.6735 80.2959 42.9673 80.5464 43.342C80.7969 43.7167 80.9285 44.1555 80.9246 44.6033V46.3736H43.3849V44.6033C43.3814 44.1556 43.5131 43.7169 43.7636 43.3422C44.014 42.9676 44.3721 42.6738 44.7927 42.4977ZM43.3849 80.8155V69.3349H48.0774V71.631C48.0774 72.24 48.3246 72.824 48.7646 73.2546C49.2046 73.6852 49.8014 73.9271 50.4236 73.9271C51.0459 73.9271 51.6426 73.6852 52.0826 73.2546C52.5226 72.824 52.7698 72.24 52.7698 71.631V69.3349H71.5397V71.631C71.5397 72.24 71.7869 72.824 72.2269 73.2546C72.6669 73.6852 73.2637 73.9271 73.8859 73.9271C74.5082 73.9271 75.1049 73.6852 75.5449 73.2546C75.985 72.824 76.2321 72.24 76.2321 71.631V69.3349H80.9246V80.8155H43.3849Z" fill="black"/>
</svg>
