<svg width="125" height="125" viewBox="0 0 125 125" fill="none" xmlns="http://www.w3.org/2000/svg">
<path d="M0 14C0 6.26801 6.26801 0 14 0H111C118.732 0 125 6.26801 125 14V111C125 118.732 118.732 125 111 125H14C6.26801 125 0 118.732 0 111V14Z" fill="#2631FF"/>
<path d="M72.8125 41.4375C72.8125 40.5258 73.1747 39.6515 73.8193 39.0068C74.464 38.3622 75.3383 38 76.25 38H83.125C84.0367 38 84.911 38.3622 85.5557 39.0068C86.2003 39.6515 86.5625 40.5258 86.5625 41.4375V82.6875H88.2812C88.7371 82.6875 89.1743 82.8686 89.4966 83.1909C89.8189 83.5132 90 83.9504 90 84.4062C90 84.8621 89.8189 85.2993 89.4966 85.6216C89.1743 85.9439 88.7371 86.125 88.2812 86.125H36.7188C36.2629 86.125 35.8257 85.9439 35.5034 85.6216C35.1811 85.2993 35 84.8621 35 84.4062C35 83.9504 35.1811 83.5132 35.5034 83.1909C35.8257 82.8686 36.2629 82.6875 36.7188 82.6875H38.4375V72.375C38.4375 71.4633 38.7997 70.589 39.4443 69.9443C40.089 69.2997 40.9633 68.9375 41.875 68.9375H48.75C49.6617 68.9375 50.536 69.2997 51.1807 69.9443C51.8253 70.589 52.1875 71.4633 52.1875 72.375V82.6875H55.625V58.625C55.625 57.7133 55.9872 56.839 56.6318 56.1943C57.2765 55.5497 58.1508 55.1875 59.0625 55.1875H65.9375C66.8492 55.1875 67.7235 55.5497 68.3682 56.1943C69.0128 56.839 69.375 57.7133 69.375 58.625V82.6875H72.8125V41.4375Z" fill="black"/>
</svg>
