<svg width="510" height="513" viewBox="0 0 510 513" fill="none" xmlns="http://www.w3.org/2000/svg">
<path fill-rule="evenodd" clip-rule="evenodd" d="M509.905 264.039C506.131 403.714 390.329 512.501 251 512.501C109.339 512.501 0 400.042 0 257.001C0 132.412 79.231 26.3431 193.968 1.00298C201.48 -0.65596 208.838 3.7646 211.663 10.9196C225.311 45.4859 242.643 69.1488 307.547 60.2588C316.163 59.0787 324.178 65.4992 326.025 73.9969C333.059 106.363 359.802 149.785 429.126 153.4C438.283 153.878 445.304 161.151 444.34 170.27C441.565 196.517 441.448 236.884 503.203 255.145C507.159 256.315 510.016 259.915 509.905 264.039ZM359 260.001C359 283.473 339.972 302.501 316.5 302.501C293.028 302.501 274 283.473 274 260.001C274 236.529 293.028 217.501 316.5 217.501C339.972 217.501 359 236.529 359 260.001ZM302 416.001C317.464 416.001 330 403.465 330 388.001C330 372.537 317.464 360.001 302 360.001C286.536 360.001 274 372.537 274 388.001C274 403.465 286.536 416.001 302 416.001ZM212 178.001C212 193.465 199.464 206.001 184 206.001C168.536 206.001 156 193.465 156 178.001C156 162.537 168.536 150.001 184 150.001C199.464 150.001 212 162.537 212 178.001ZM169.5 388.001C192.972 388.001 212 368.973 212 345.501C212 322.029 192.972 303.001 169.5 303.001C146.028 303.001 127 322.029 127 345.501C127 368.973 146.028 388.001 169.5 388.001ZM414 318.001C414 326.285 407.284 333.001 399 333.001C390.716 333.001 384 326.285 384 318.001C384 309.717 390.716 303.001 399 303.001C407.284 303.001 414 309.717 414 318.001ZM102 267.001C110.284 267.001 117 260.285 117 252.001C117 243.717 110.284 237.001 102 237.001C93.7157 237.001 87 243.717 87 252.001C87 260.285 93.7157 267.001 102 267.001Z" fill="black"/>
</svg>
