<svg width="500" height="500" viewBox="0 0 500 500" fill="none" xmlns="http://www.w3.org/2000/svg">
<path d="M481.259 114.43H432.609V127.3H481.259V114.43Z" fill="#EBEBEB"/>
<path d="M124.839 53.25H76.1895V66.12H124.839V53.25Z" fill="#EBEBEB"/>
<path d="M103.64 79.6801C103.636 79.6035 103.636 79.5267 103.64 79.4501V78.7901C103.64 78.1801 103.64 77.3401 103.64 76.2501C103.64 74.0301 103.64 70.8401 103.56 66.8101L103.71 66.9601L54.9998 67.0601L55.2498 66.8101V70.1001C55.2498 71.1901 55.2498 72.2801 55.2498 73.3501V79.6801L54.9998 79.4401L89.6698 79.5501L99.8998 79.6201H102.67H103.39H103.65C103.65 79.6201 103.58 79.6201 103.43 79.6201H102.73H100.02L89.8398 79.6901L54.9998 79.9201H54.7598V79.6801C54.7598 77.6067 54.7598 75.4967 54.7598 73.3501V66.8301L55.0098 66.5801L103.66 66.6801H103.81V66.8301C103.81 70.9001 103.75 74.1201 103.73 76.3601C103.73 77.4301 103.73 78.2701 103.73 78.8601C103.73 79.1201 103.73 79.3301 103.73 79.5001C103.73 79.6701 103.65 79.6901 103.64 79.6801Z" fill="#E0E0E0"/>
<path d="M475.869 393.299H427.219V406.169H475.869V393.299Z" fill="#EBEBEB"/>
<path d="M454.67 419.72C454.661 419.644 454.661 419.567 454.67 419.49C454.67 419.32 454.67 419.1 454.67 418.83C454.67 418.22 454.67 417.38 454.67 416.3C454.67 414.07 454.62 410.88 454.59 406.85L454.74 407L406.09 407.1C406.2 406.99 405.84 407.35 406.33 406.85V419.71L406.09 419.47L440.76 419.58L450.99 419.65H453.76H454.48H454.74H454.51H453.82H451.1L440.93 419.72L406 420H405.75V406.86C406.24 406.37 405.89 406.73 406 406.61L454.65 406.71H454.8V406.86C454.8 410.93 454.74 414.15 454.72 416.4C454.72 417.46 454.72 418.3 454.72 418.9C454.72 419.16 454.72 419.36 454.72 419.53C454.708 419.595 454.692 419.658 454.67 419.72V419.72Z" fill="#E0E0E0"/>
<path d="M346.999 59.2504C346.995 59.1738 346.995 59.097 346.999 59.0204V58.3604C346.999 57.7504 346.999 56.9104 346.999 55.8304C346.999 53.6104 346.999 50.4104 346.919 46.3804L347.069 46.5304L298.419 46.6304L298.669 46.3804V52.9104C298.669 55.0571 298.669 57.1671 298.669 59.2404L298.429 59.0004L333.099 59.1104L343.329 59.1804H346.099H346.829H346.999C346.999 59.1804 346.929 59.1804 346.779 59.1804H346.079H343.369L333.189 59.2504L298.349 59.3604H298.109V59.1104C298.109 57.0404 298.109 54.9304 298.109 52.7804V46.3904L298.359 46.1504L347.009 46.2404H347.159V46.3904C347.159 50.4604 347.099 53.6804 347.079 55.9304C347.079 57.0004 347.079 57.8304 347.079 58.4304V59.0604C346.999 59.1904 346.999 59.2604 346.999 59.2504Z" fill="#E0E0E0"/>
<path d="M353.6 46.3795C353.592 46.2997 353.592 46.2193 353.6 46.1395V45.4595C353.6 44.8195 353.6 43.9595 353.6 42.8795C353.6 40.6195 353.54 37.4295 353.5 33.5095L353.68 33.6895L324.45 33.7595C324.23 33.9795 324.75 33.4595 324.69 33.5095V40.1295C324.69 42.2895 324.69 44.3695 324.69 46.3695L324.46 46.1395L345.37 46.2495L351.46 46.3095H353.1H353.69C353.514 46.3238 353.336 46.3238 353.16 46.3095H351.56L345.56 46.3795L324.49 46.4895H324.25V46.2495C324.25 44.2495 324.25 42.1695 324.25 40.0095V33.5195L324.5 33.2695L353.73 33.3395H353.91V33.5195C353.91 37.5195 353.83 40.7095 353.81 42.9895C353.81 44.0595 353.81 44.9095 353.81 45.5295C353.81 46.1495 353.61 46.3995 353.6 46.3795Z" fill="#E0E0E0"/>
<path d="M72.4391 425.389C72.4391 425.389 72.4391 425.299 72.4391 425.149V424.489C72.4391 423.889 72.4391 423.039 72.4391 421.959C72.4391 419.739 72.4391 416.539 72.3491 412.519L72.4991 412.669L23.8491 412.759L24.0991 412.519V419.039C24.0991 421.179 24.0991 423.299 24.0991 425.369L23.8591 425.119L58.5291 425.239L68.7591 425.299H71.5291H72.2591H72.5091H72.2891H71.5891H68.8791L58.6991 425.369L23.8591 425.479H23.6191V425.239C23.6191 423.169 23.6191 421.049 23.6191 418.909V412.389L23.8691 412.139L72.5191 412.239H72.6691V412.389C72.6691 416.449 72.6091 419.679 72.5891 421.919C72.5891 422.989 72.5891 423.819 72.5891 424.419V425.049C72.5648 425.172 72.5136 425.288 72.4391 425.389V425.389Z" fill="#E0E0E0"/>
<path d="M78.9984 412.519C78.991 412.436 78.991 412.352 78.9984 412.269C78.9984 412.089 78.9984 411.859 78.9984 411.589C78.9984 410.959 78.9984 410.099 78.9984 409.009C78.9984 406.749 78.9384 403.559 78.8984 399.649L79.0784 399.819L49.8484 399.889L50.0884 399.649V406.259C50.0884 408.409 50.0884 410.499 50.0884 412.499L49.8584 412.259L70.7684 412.369L76.8584 412.439H78.4984H79.0884C78.9121 412.454 78.7348 412.454 78.5584 412.439H76.9584L70.9584 412.499L49.8884 412.609H49.6484V412.379C49.6484 410.379 49.6484 408.289 49.6484 406.139V399.529L49.8984 399.279L79.1284 399.349H79.3084V399.529C79.3084 403.529 79.2284 406.709 79.2084 408.999C79.2084 410.069 79.2084 410.909 79.2084 411.539C79.2084 412.169 79.0484 412.529 78.9984 412.519Z" fill="#E0E0E0"/>
<path d="M456.94 462.61C456.94 462.75 361.17 462.87 243.06 462.87C124.95 462.87 29.1602 462.75 29.1602 462.61C29.1602 462.47 124.91 462.35 243.06 462.35C361.21 462.35 456.94 462.47 456.94 462.61Z" fill="#263238"/>
<path d="M436.521 84.9902H49.6405C42.5547 84.9902 36.8105 90.7344 36.8105 97.8202V359.63C36.8105 366.716 42.5547 372.46 49.6405 372.46H436.521C443.606 372.46 449.351 366.716 449.351 359.63V97.8202C449.351 90.7344 443.606 84.9902 436.521 84.9902Z" fill="#263238"/>
<path d="M449.35 97.8203L449.29 96.9203C449.274 96.551 449.23 96.1833 449.16 95.8203C449.086 95.309 448.972 94.8042 448.82 94.3103C448.341 92.6389 447.525 91.083 446.423 89.7383C445.321 88.3935 443.955 87.2882 442.41 86.4903C441.334 85.9393 440.186 85.5389 439 85.3003C437.679 85.0828 436.338 85.0024 435 85.0603H425.71H402.54L254.89 85.1503H152.89H51.2304C49.9736 85.1006 48.7149 85.1675 47.4704 85.3503C46.2325 85.5602 45.0348 85.9617 43.9204 86.5403C41.6688 87.6959 39.8157 89.5003 38.6004 91.7203C38.0106 92.8383 37.5798 94.0332 37.3204 95.2703C37.1142 96.5325 37.0338 97.8122 37.0804 99.0903V122.62C37.0804 133.174 37.0804 143.84 37.0804 154.62V220.62C37.0804 265.47 37.0804 311.9 37.0804 359.46C37.0719 362.387 38.0882 365.225 39.9532 367.481C41.8182 369.737 44.4141 371.268 47.2904 371.81C48.7365 372.025 50.2001 372.099 51.6604 372.03H168.34H297.68H414.68H435.03C436.133 372.066 437.236 372.016 438.33 371.88C441.001 371.51 443.482 370.289 445.404 368.397C447.326 366.506 448.587 364.045 449 361.38C449.124 360.315 449.168 359.242 449.13 358.17C449.13 357.09 449.13 356.02 449.13 354.94V348.53C449.13 331.524 449.13 315.214 449.13 299.6C449.13 237.27 449.2 186.82 449.22 151.95C449.22 134.53 449.22 120.95 449.27 111.81C449.27 107.23 449.27 103.73 449.27 101.37C449.27 99.0103 449.27 97.8203 449.27 97.8203C449.27 97.8203 449.27 99.0203 449.27 101.37C449.27 103.72 449.27 107.23 449.27 111.81C449.27 120.99 449.27 134.53 449.27 151.95C449.27 186.82 449.33 237.27 449.37 299.6C449.37 315.187 449.37 331.497 449.37 348.53C449.37 350.66 449.37 352.79 449.37 354.94V358.17C449.403 359.262 449.356 360.355 449.23 361.44C448.916 363.659 448.037 365.76 446.678 367.543C445.32 369.325 443.527 370.729 441.47 371.62C440.43 372.059 439.338 372.365 438.22 372.53C437.106 372.668 435.983 372.722 434.86 372.69H414.72H297.72H168.38H51.6804C50.1865 372.758 48.6895 372.681 47.2104 372.46C44.2007 371.893 41.4843 370.291 39.5319 367.931C37.5795 365.571 36.5141 362.603 36.5204 359.54C36.5204 311.98 36.5204 265.54 36.5204 220.7C36.5204 198.28 36.5204 176.28 36.5204 154.7V99.1903C36.4774 97.8783 36.5645 96.5652 36.7804 95.2703C37.0504 93.9814 37.498 92.7361 38.1104 91.5703C39.3866 89.2593 41.3175 87.3771 43.6604 86.1603C44.823 85.5621 46.0711 85.1472 47.3604 84.9303C48.6345 84.7414 49.9234 84.6711 51.2104 84.7203H96.1004H152.9H254.9L402.55 84.8103H425.72H435C436.339 84.765 437.679 84.8521 439 85.0703C440.199 85.3109 441.358 85.7218 442.44 86.2903C443.995 87.0991 445.367 88.2185 446.471 89.5791C447.576 90.9397 448.389 92.5126 448.86 94.2003C449.007 94.6944 449.114 95.1993 449.18 95.7103C449.248 96.0768 449.288 96.4478 449.3 96.8203C449.35 97.5103 449.35 97.8203 449.35 97.8203Z" fill="#263238"/>
<path d="M428.621 217.689C430.797 217.689 432.923 218.335 434.732 219.543C436.541 220.752 437.951 222.47 438.784 224.48C439.616 226.49 439.834 228.702 439.41 230.835C438.985 232.969 437.938 234.929 436.399 236.468C434.861 238.006 432.901 239.054 430.767 239.478C428.633 239.903 426.422 239.685 424.412 238.852C422.402 238.02 420.684 236.61 419.475 234.801C418.266 232.992 417.621 230.865 417.621 228.689C417.621 225.772 418.78 222.974 420.843 220.911C422.906 218.848 425.704 217.689 428.621 217.689V217.689Z" fill="#455A64"/>
<path d="M58.6099 199.271V258.001C58.6112 258.539 58.5064 259.072 58.3015 259.569C58.0965 260.067 57.7955 260.519 57.4155 260.9C57.0356 261.281 56.5843 261.583 56.0874 261.789C55.5905 261.995 55.0579 262.101 54.5199 262.101V262.101C53.9815 262.101 53.4484 261.995 52.9509 261.789C52.4535 261.583 52.0015 261.281 51.6208 260.9C51.2401 260.52 50.9381 260.068 50.732 259.57C50.526 259.073 50.4199 258.54 50.4199 258.001V199.301C50.4199 198.214 50.8519 197.171 51.6208 196.402C52.3897 195.633 53.4325 195.201 54.5199 195.201C55.6012 195.201 56.6385 195.629 57.4049 196.392C58.1714 197.155 58.6046 198.19 58.6099 199.271Z" fill="#455A64"/>
<path d="M410.76 94.3008H66.2402V363.641H410.76V94.3008Z" fill="#EBEBEB"/>
<path d="M288.371 288.73L315.011 335.68L380.511 334.71L376.801 283.76L288.371 288.73Z" fill="#E0E0E0"/>
<path d="M201.79 130.181L192.17 204.391L212.04 209.131L250.89 205.271L243.76 124.201L201.79 130.181Z" fill="#E0E0E0"/>
<path d="M141.44 282.06H95.5195V226.77L145.42 227.27L141.44 282.06Z" fill="#F5F5F5"/>
<path d="M330.48 283.76C330.48 282.19 338.57 227.27 338.57 227.27C338.57 227.27 370.23 218.6 370.35 219.84C370.47 221.08 376.65 282.3 376.65 282.3L330.48 283.76Z" fill="#F5F5F5"/>
<path d="M100.801 143.101C100.891 144.441 122.731 188.361 122.731 188.361L148.021 181.661V131.131L121.941 130.531L100.801 143.101Z" fill="#E0E0E0"/>
<path d="M255.24 234.74H220.27V251.24H255.24V234.74Z" fill="#E0E0E0"/>
<path d="M255.401 256.711L220.181 258.491L218.391 291.931L258.611 288.731L255.401 256.711Z" fill="#E0E0E0"/>
<path d="M396.48 194.7L391.59 126.82H410.67L410.76 193.35L396.48 194.7Z" fill="#E0E0E0"/>
<path d="M318.34 115.701L326.29 200.291L368 196.551L360.72 124.401L327.7 115.701H318.34Z" fill="#E0E0E0"/>
<path d="M126.7 130.83L66.4805 129.92L66.5405 125.92L123.44 126.78L130.01 94.3301L133.94 95.1201L126.7 130.83Z" fill="white"/>
<path d="M95.2308 196.17L66.0508 130.73L66.9608 130.32L95.8008 194.98L147.901 181.17L148.151 182.14L95.2308 196.17Z" fill="white"/>
<path d="M145.43 226.27H66.5195V228.27H145.43V226.27Z" fill="white"/>
<path d="M96.0098 195.58H95.0098V282.07H96.0098V195.58Z" fill="white"/>
<path d="M141.71 281.621H66.5195V282.621H141.71V281.621Z" fill="white"/>
<path d="M137.811 360.31L66.2012 344.51L67.0612 340.6L134.161 355.41L145.671 195.26L147.401 128.65L150.091 94.5703L154.071 94.8803L151.391 128.91L149.671 195.46L137.811 360.31Z" fill="white"/>
<path d="M149.231 133.26L124.871 130.8L125.281 126.82L146.811 129L150.371 121.4L182.461 129.18L326.761 112.73L377.031 125.79L410.611 124.82L410.731 128.81L376.581 129.81L326.471 116.79L182.211 133.23L152.611 126.06L149.231 133.26Z" fill="white"/>
<path d="M317.001 286.871L313.031 286.351L324.271 200.271L315.631 115.781V94.3008H319.631V115.681L328.301 200.321L317.001 286.871Z" fill="white"/>
<path d="M139.74 298.71L139.5 294.72L375.37 280.38L407.47 215.02L411.06 216.78L377.94 284.23L376.78 284.3L139.74 298.71Z" fill="white"/>
<path d="M257.841 291.141L242.761 124.291L241.941 94.7612L243.941 94.7012L244.761 124.181L259.831 290.961L257.841 291.141Z" fill="white"/>
<path d="M226.181 362.57L208.741 291.35V210.79L189.111 205.91L197.631 129.44L196.841 94.34L200.841 94.25L201.641 129.62L201.631 129.75L193.471 202.87L212.741 207.67V290.86L230.071 361.62L226.181 362.57Z" fill="white"/>
<path d="M210.74 226.77H145.42V227.77H210.74V226.77Z" fill="white"/>
<path d="M147.76 194.909L147.559 195.889L191.184 204.868L191.386 203.888L147.76 194.909Z" fill="white"/>
<path d="M210.631 260.38L195.111 256.95V227.27H196.111V256.15L210.851 259.4L210.631 260.38Z" fill="white"/>
<path d="M186.4 362.521L177.68 334.531H137.77V330.531H180.62L190.22 361.331L186.4 362.521Z" fill="white"/>
<path d="M314.721 336.19L287.941 288.97L288.811 288.48L315.301 335.18L410.541 333.76L410.561 334.76L314.721 336.19Z" fill="white"/>
<path d="M361.58 335.68H360.58V362.64H361.58V335.68Z" fill="white"/>
<path d="M380.01 334.75L376.3 283.8L357.18 94.35L358.18 94.25L377.3 283.71L381.01 334.67L380.01 334.75Z" fill="white"/>
<path d="M410.724 192.832L210.703 208.715L210.782 209.712L410.803 193.829L410.724 192.832Z" fill="white"/>
<path d="M392.578 128.466L390.586 128.645L396.526 194.808L398.518 194.63L392.578 128.466Z" fill="white"/>
<path d="M394.853 165.634L365.547 172.887L365.787 173.857L395.093 166.605L394.853 165.634Z" fill="white"/>
<path d="M381.97 168.97L376.78 139.55L362.15 138L362.25 137.01L377.63 138.64L382.95 168.79L381.97 168.97Z" fill="white"/>
<path d="M282.924 120.786L280.932 120.957L287.878 201.98L289.87 201.809L282.924 120.786Z" fill="white"/>
<path d="M321.778 165.088L286.336 172.887L286.551 173.863L321.993 166.064L321.778 165.088Z" fill="white"/>
<path d="M314.043 335.563L310.402 363.789L312.386 364.045L316.027 335.819L314.043 335.563Z" fill="white"/>
<path d="M149.4 228.971L145.42 291.051L207.47 288.031V263.671L191.22 260.081V231.641L149.4 228.971Z" fill="#E0E0E0"/>
<path d="M132.311 244.09C132.312 241.923 131.814 239.784 130.855 237.841C129.895 235.897 128.501 234.201 126.779 232.884C125.058 231.567 123.056 230.665 120.929 230.247C118.803 229.829 116.608 229.907 114.517 230.475C112.425 231.043 110.493 232.085 108.869 233.521C107.246 234.957 105.975 236.748 105.156 238.755C104.338 240.762 103.992 242.93 104.148 245.092C104.303 247.254 104.954 249.351 106.051 251.22V251.22V251.27C106.591 252.18 107.261 252.83 107.951 253.79L116.131 264.63C116.369 264.945 116.677 265.2 117.03 265.376C117.383 265.552 117.772 265.643 118.166 265.643C118.561 265.643 118.95 265.552 119.303 265.376C119.656 265.2 119.964 264.945 120.201 264.63L128.201 253.97C128.933 253.104 129.618 252.2 130.251 251.26V251.26C131.574 249.1 132.286 246.622 132.311 244.09V244.09ZM118.211 250.23C116.982 250.232 115.78 249.869 114.757 249.188C113.735 248.506 112.937 247.536 112.466 246.401C111.995 245.266 111.871 244.016 112.11 242.811C112.349 241.605 112.941 240.498 113.81 239.629C114.679 238.76 115.787 238.168 116.992 237.929C118.198 237.69 119.447 237.813 120.582 238.285C121.718 238.756 122.687 239.553 123.369 240.576C124.051 241.599 124.413 242.801 124.411 244.03C124.409 245.673 123.755 247.249 122.592 248.411C121.43 249.573 119.855 250.227 118.211 250.23V250.23Z" fill="#2631FF"/>
<path d="M265.001 194.48C265.006 192.311 264.511 190.17 263.553 188.223C262.596 186.276 261.202 184.577 259.481 183.257C257.759 181.937 255.757 181.032 253.628 180.612C251.5 180.192 249.303 180.27 247.21 180.837C245.116 181.405 243.182 182.449 241.557 183.886C239.932 185.324 238.661 187.117 237.843 189.126C237.024 191.135 236.681 193.306 236.838 195.469C236.995 197.633 237.65 199.731 238.751 201.6V201.66C239.291 202.57 239.971 203.22 240.661 204.18L248.861 215C249.098 215.315 249.406 215.57 249.759 215.746C250.112 215.922 250.501 216.014 250.896 216.014C251.29 216.014 251.679 215.922 252.032 215.746C252.386 215.57 252.693 215.315 252.931 215L261.001 204.35C261.718 203.485 262.386 202.581 263.001 201.64V201.64C264.3 199.477 264.992 197.003 265.001 194.48V194.48ZM250.901 200.62C249.673 200.62 248.472 200.256 247.451 199.574C246.429 198.891 245.633 197.921 245.163 196.787C244.693 195.652 244.57 194.403 244.81 193.199C245.05 191.994 245.641 190.888 246.51 190.019C247.378 189.151 248.485 188.559 249.689 188.319C250.894 188.08 252.142 188.203 253.277 188.673C254.412 189.143 255.382 189.939 256.064 190.96C256.747 191.981 257.111 193.182 257.111 194.41C257.111 195.227 256.95 196.035 256.637 196.789C256.324 197.543 255.866 198.228 255.288 198.805C254.711 199.382 254.025 199.839 253.27 200.15C252.516 200.462 251.707 200.621 250.891 200.62H250.901Z" fill="#2631FF"/>
<path d="M206.461 316.621C206.466 315.133 206.127 313.663 205.471 312.328C204.815 310.992 203.859 309.825 202.679 308.919C201.498 308.013 200.124 307.391 198.664 307.103C197.204 306.815 195.697 306.867 194.261 307.257C192.824 307.646 191.497 308.362 190.383 309.348C189.268 310.335 188.396 311.565 187.835 312.943C187.274 314.322 187.038 315.811 187.147 317.295C187.255 318.78 187.705 320.219 188.461 321.501V321.501C188.831 322.121 189.301 322.571 189.771 323.221L195.381 330.661C195.544 330.875 195.755 331.048 195.996 331.167C196.237 331.286 196.502 331.348 196.771 331.348C197.04 331.348 197.305 331.286 197.546 331.167C197.787 331.048 197.998 330.875 198.161 330.661L203.681 323.351C204.184 322.756 204.654 322.135 205.091 321.491V321.491C205.974 320.019 206.447 318.338 206.461 316.621V316.621ZM196.791 320.831C195.948 320.833 195.123 320.585 194.422 320.118C193.72 319.651 193.172 318.986 192.848 318.208C192.524 317.43 192.438 316.573 192.602 315.746C192.765 314.919 193.17 314.159 193.765 313.562C194.361 312.966 195.12 312.559 195.946 312.394C196.773 312.228 197.63 312.312 198.409 312.634C199.188 312.957 199.854 313.503 200.322 314.203C200.791 314.904 201.041 315.728 201.041 316.571C201.042 317.13 200.933 317.684 200.72 318.2C200.507 318.717 200.195 319.187 199.8 319.583C199.405 319.978 198.936 320.292 198.42 320.507C197.903 320.721 197.35 320.831 196.791 320.831V320.831Z" fill="#2631FF"/>
<path d="M381.87 141.099C381.86 138.691 380.951 136.372 379.321 134.598C377.691 132.825 375.458 131.723 373.059 131.509C370.66 131.295 368.267 131.984 366.349 133.442C364.431 134.899 363.126 137.02 362.69 139.389C362.277 141.656 362.696 143.996 363.87 145.979C364.24 146.599 364.71 147.049 365.18 147.709L370.79 155.139C370.953 155.353 371.164 155.526 371.405 155.645C371.646 155.764 371.911 155.826 372.18 155.826C372.449 155.826 372.714 155.764 372.955 155.645C373.196 155.526 373.407 155.353 373.57 155.139L379.09 147.829C379.593 147.235 380.063 146.614 380.5 145.969V145.969C381.383 144.497 381.856 142.816 381.87 141.099V141.099ZM372.2 145.309C371.357 145.311 370.532 145.063 369.83 144.596C369.128 144.128 368.58 143.463 368.256 142.684C367.933 141.905 367.847 141.048 368.011 140.221C368.175 139.393 368.581 138.634 369.178 138.037C369.774 137.441 370.534 137.035 371.361 136.871C372.189 136.707 373.046 136.792 373.825 137.116C374.604 137.439 375.269 137.987 375.736 138.689C376.204 139.391 376.452 140.216 376.45 141.059C376.45 142.187 376.002 143.268 375.205 144.065C374.408 144.862 373.327 145.309 372.2 145.309Z" fill="#2631FF"/>
<path d="M176.001 145.7C176.004 143.065 175.399 140.465 174.234 138.101C173.068 135.738 171.374 133.675 169.281 132.073C167.189 130.47 164.756 129.372 162.17 128.863C159.584 128.355 156.916 128.449 154.373 129.139C151.83 129.829 149.48 131.096 147.506 132.842C145.532 134.588 143.987 136.765 142.991 139.205C141.996 141.645 141.576 144.282 141.765 146.91C141.954 149.539 142.746 152.088 144.081 154.36V154.36L144.131 154.42C144.781 155.53 145.611 156.32 146.441 157.48L156.391 170.67C156.68 171.052 157.053 171.361 157.482 171.574C157.91 171.786 158.382 171.897 158.861 171.897C159.339 171.897 159.811 171.786 160.24 171.574C160.668 171.361 161.042 171.052 161.331 170.67L171.121 157.67C172.012 156.618 172.844 155.517 173.611 154.37V154.37C175.166 151.745 175.991 148.752 176.001 145.7V145.7ZM158.851 153.16C157.357 153.16 155.897 152.717 154.655 151.887C153.413 151.057 152.446 149.877 151.874 148.497C151.303 147.117 151.154 145.599 151.447 144.134C151.739 142.669 152.459 141.324 153.516 140.268C154.572 139.213 155.919 138.494 157.384 138.204C158.849 137.914 160.367 138.065 161.747 138.638C163.126 139.211 164.305 140.18 165.133 141.423C165.962 142.666 166.403 144.127 166.401 145.62C166.398 147.621 165.601 149.539 164.186 150.953C162.77 152.366 160.851 153.16 158.851 153.16V153.16Z" fill="#2631FF"/>
<path d="M83.9995 419.571C83.9995 419.571 61.4795 393.721 52.9995 367.861C44.5195 342.001 48.5595 345.001 48.5595 345.001C48.5595 345.001 59.9995 370.091 68.6895 382.221C77.3795 394.351 92.8494 412.161 92.8494 412.161L83.9995 419.571Z" fill="#455A64"/>
<path d="M88.4288 349C88.2795 348.732 88.041 348.525 87.7548 348.415C87.4687 348.305 87.153 348.299 86.8627 348.398C86.5725 348.497 86.3261 348.694 86.1664 348.956C86.0067 349.217 85.9438 349.527 85.9888 349.83C87.3588 358.92 90.3188 380.23 90.1988 394.05C90.0488 412.05 90.1988 418.95 90.1988 418.95H99.5488C99.5488 418.95 97.8888 381.83 95.7788 370.51C94.3088 362.58 91.1588 353.77 88.4288 349Z" fill="#455A64"/>
<path d="M93.5195 415.93C97.4421 407.055 100.037 397.651 101.22 388.02C101.99 381.41 100.62 372.47 98.5695 360.55C97.782 356.191 97.3871 351.77 97.3895 347.34C97.4032 346.849 97.5783 346.377 97.8877 345.996C98.1972 345.615 98.6236 345.347 99.101 345.233C99.5784 345.119 100.08 345.166 100.528 345.366C100.976 345.566 101.346 345.908 101.58 346.34C102.71 348.34 105.97 355.23 106.8 359.55C109.07 371.32 111.63 377.2 109.67 388.37C107.71 399.54 100.47 416.74 100.47 416.74L93.5195 415.93Z" fill="#455A64"/>
<path d="M102 416.691C102 416.691 126.66 363.691 128.37 355.821C130.08 347.951 135.89 329.821 136.58 330.821C137.27 331.821 138.29 341.421 133.84 352.361C129.39 363.301 110.42 418.261 110.42 418.261H102" fill="#455A64"/>
<path d="M90.8204 414.32C90.5782 414.179 90.3475 414.018 90.1304 413.84C89.6904 413.51 89.0304 413.04 88.2204 412.38C86.5804 411.09 84.2804 409.13 81.5904 406.53C74.6447 399.681 68.6298 391.948 63.7004 383.53C58.7842 375.135 54.6918 366.284 51.4804 357.1C50.2404 353.58 49.3404 350.7 48.7504 348.7C48.4504 347.7 48.2404 346.92 48.0904 346.39C48.0089 346.122 47.9454 345.848 47.9004 345.57C48.0215 345.825 48.1219 346.089 48.2004 346.36C48.3804 346.92 48.6304 347.68 48.9504 348.64C49.5904 350.64 50.5504 353.48 51.8304 356.98C55.1337 366.105 59.2572 374.911 64.1504 383.29C69.0684 391.665 75.0145 399.392 81.8504 406.29C84.4904 408.91 86.7504 410.91 88.3504 412.29C89.1404 412.98 89.7804 413.47 90.2004 413.83C90.4223 413.973 90.6299 414.137 90.8204 414.32V414.32Z" fill="#263238"/>
<path d="M93.5192 388.89C93.4062 388.376 93.3326 387.855 93.2992 387.33C93.1792 386.23 93.0292 384.8 92.8492 383.08C92.4592 379.5 91.8492 374.55 90.9692 369.08C90.0892 363.61 89.1292 358.76 88.3692 355.23C88.0092 353.54 87.7092 352.13 87.4692 351.05C87.3294 350.543 87.239 350.024 87.1992 349.5C87.3933 349.988 87.5504 350.489 87.6692 351C87.9492 352 88.3192 353.39 88.7392 355.15C89.5892 358.66 90.6192 363.55 91.4892 368.99C92.3592 374.43 92.9192 379.41 93.2192 382.99C93.3692 384.79 93.4592 386.25 93.5092 387.26C93.564 387.802 93.5673 388.348 93.5192 388.89V388.89Z" fill="#263238"/>
<path d="M99.3001 345.871C99.4195 346.087 99.5167 346.315 99.5901 346.551L100.33 348.551C100.66 349.401 101.03 350.451 101.39 351.701C101.75 352.951 102.23 354.351 102.59 355.951C102.78 356.741 102.99 357.571 103.2 358.441C103.41 359.311 103.55 360.231 103.74 361.171C104.14 363.051 104.39 365.091 104.74 367.231C105.271 371.894 105.468 376.59 105.33 381.281C105.135 385.98 104.604 390.658 103.74 395.281C103.29 397.401 102.89 399.421 102.36 401.281C102.1 402.201 101.89 403.111 101.62 403.961C101.35 404.811 101.08 405.621 100.83 406.401C100.36 407.971 99.8301 409.331 99.3301 410.551C98.8301 411.771 98.4401 412.791 98.0501 413.621L97.1701 415.531C97.0829 415.76 96.9687 415.979 96.8301 416.181C96.8924 415.945 96.9726 415.715 97.0701 415.491L97.8601 413.541C98.2201 412.701 98.6401 411.671 99.0601 410.441C99.4801 409.211 100.06 407.851 100.48 406.291L101.23 403.841C101.49 402.991 101.69 402.091 101.93 401.171C102.45 399.321 102.82 397.311 103.26 395.171C104.089 390.578 104.607 385.934 104.81 381.271C104.942 376.597 104.758 371.92 104.26 367.271C103.98 365.141 103.74 363.101 103.36 361.271C103.18 360.331 103.05 359.411 102.85 358.551L102.28 356.061C101.94 354.461 101.5 353.061 101.16 351.811C100.82 350.561 100.48 349.501 100.16 348.631C99.8401 347.761 99.6701 347.141 99.5101 346.631C99.411 346.387 99.3405 346.132 99.3001 345.871V345.871Z" fill="#263238"/>
<path d="M136.25 331.92C136.254 332 136.254 332.08 136.25 332.16C136.25 332.35 136.18 332.57 136.14 332.85C136.03 333.45 135.89 334.35 135.65 335.49C135.17 337.77 134.38 341.05 133.15 345.03C131.92 349.01 130.23 353.68 128.23 358.81C126.23 363.94 123.93 369.53 121.74 375.48C119.55 381.43 117.81 387.23 116.2 392.48C114.59 397.73 113.09 402.48 111.62 406.38C110.493 409.47 109.194 412.495 107.73 415.44C107.23 416.49 106.73 417.27 106.48 417.81L106.13 418.42C106.093 418.491 106.05 418.558 106 418.62C106 418.62 106 418.54 106.09 418.39L106.38 417.76C106.65 417.21 107.07 416.41 107.55 415.35C108.55 413.25 109.88 410.16 111.28 406.25C112.68 402.34 114.16 397.61 115.73 392.34C117.3 387.07 119.02 381.25 121.25 375.29C123.48 369.33 125.77 363.74 127.78 358.62C129.79 353.5 131.52 348.86 132.78 344.91C134.04 340.96 134.9 337.69 135.44 335.43C135.71 334.3 135.88 333.43 136.02 332.82C136.09 332.55 136.14 332.32 136.18 332.14C136.192 332.063 136.215 331.989 136.25 331.92V331.92Z" fill="#263238"/>
<path d="M60.1904 320.211C59.8488 319.888 59.41 319.687 58.9424 319.64C58.4748 319.592 58.0047 319.701 57.6053 319.949C57.2058 320.196 56.8995 320.569 56.7341 321.009C56.5686 321.449 56.5532 321.931 56.6904 322.381C57.5328 325.117 58.5687 327.791 59.7904 330.381C63.1804 337.581 73.1404 363.441 77.7904 377.641C82.4404 391.841 89.0004 418.301 89.0004 418.301L99.0004 416.691C99.0004 416.691 89.8904 373.161 81.0004 357.481C73.8304 344.881 66.6804 326.661 60.1904 320.211Z" fill="#455A64"/>
<path d="M80.5293 386.49C80.7351 386.874 80.9058 387.276 81.0393 387.69C81.3393 388.47 81.7393 389.61 82.1893 391.03C83.1093 393.87 84.1893 397.84 85.3593 402.24C86.5293 406.64 87.4293 410.66 88.0793 413.57L88.8293 417.02C88.9281 417.44 88.9851 417.869 88.9993 418.3C88.8164 417.907 88.6788 417.494 88.5893 417.07C88.3493 416.16 88.0393 415.02 87.6793 413.66C86.9193 410.66 85.9193 406.73 84.8093 402.37C83.6993 398.01 82.6193 394 81.8093 391.14L80.8093 387.75C80.6681 387.342 80.5742 386.92 80.5293 386.49V386.49Z" fill="#263238"/>
<path d="M93.9992 417.501C93.9668 417.414 93.9466 417.323 93.9392 417.231C93.9392 417.021 93.8692 416.761 93.8292 416.451C93.7192 415.761 93.6292 414.731 93.4192 413.451C93.0592 410.831 92.4192 407.071 91.3292 402.451C90.0589 397.069 88.5033 391.758 86.6692 386.541C84.6692 380.641 82.0692 374.271 79.1692 367.671C73.3092 354.491 67.4592 342.811 63.6092 334.161C61.6692 329.851 60.1592 326.331 59.1692 323.881C58.6692 322.661 58.3092 321.701 58.0492 321.051L57.7792 320.311C57.7418 320.228 57.7149 320.14 57.6992 320.051C57.6992 320.051 57.6992 320.121 57.8292 320.291L58.1492 321.011L59.3592 323.801C60.4492 326.231 61.9992 329.721 63.9992 334.001C67.9292 342.601 73.8292 354.251 79.6992 367.451C82.6092 374.061 85.1592 380.451 87.1792 386.371C88.9985 391.615 90.5242 396.957 91.7492 402.371C92.5717 406.003 93.2125 409.674 93.6692 413.371C93.8492 414.681 93.9092 415.711 93.9792 416.371C93.9792 416.701 93.9792 416.961 94.0492 417.161C94.0523 417.276 94.0354 417.391 93.9992 417.501V417.501Z" fill="#263238"/>
<path d="M98.9996 416.691C98.8498 416.139 98.7395 415.578 98.6696 415.011C98.4696 413.851 98.2096 412.301 97.8896 410.441C97.2096 406.581 96.1596 401.271 94.6496 395.441C93.1396 389.611 91.4796 384.511 90.1896 380.811L88.6296 376.431C88.4125 375.905 88.2353 375.363 88.0996 374.811C88.3838 375.306 88.6247 375.824 88.8196 376.361C89.2496 377.361 89.8196 378.841 90.5396 380.681C92.3385 385.472 93.8807 390.355 95.1596 395.311C96.4452 400.255 97.4798 405.261 98.2596 410.311C98.5396 412.251 98.7596 413.821 98.8696 414.921C98.9669 415.505 99.0105 416.098 98.9996 416.691V416.691Z" fill="#263238"/>
<path d="M119.419 415.26H80.5586V462.61H119.419V415.26Z" fill="#2631FF"/>
<g opacity="0.3">
<path d="M119.419 415.26H80.5586V462.61H119.419V415.26Z" fill="black"/>
</g>
<path d="M107.029 415.26H72.5488V462.61H107.029V415.26Z" fill="#2631FF"/>
<path d="M256.79 315.51C256.79 315.51 256.79 350.67 256.35 352.65C255.91 354.63 254.88 365.17 257.45 370.06C260.02 374.95 266.13 384.86 271.45 386.24C276.77 387.62 279.78 386.24 279.78 386.24C279.78 386.24 283.05 363.34 281.98 356.77C280.91 350.2 278.48 335.86 278.48 335.86L262 317.16L256.79 315.51Z" fill="#FFBE9D"/>
<path d="M298.209 267.25L313.739 262.48L343.109 260.52L360.879 263.89L341.579 294.82L313.739 292.72L298.209 267.25Z" fill="#FFBE9D"/>
<path d="M359.689 203.42C359.854 210.856 358.442 218.243 355.546 225.094C352.65 231.945 348.337 238.106 342.889 243.17C340.382 235.923 337.879 228.67 335.379 221.41" fill="#263238"/>
<path d="M303.07 160.139C309.52 156.619 317.31 156.139 324.51 157.559C331.71 158.979 338.43 162.259 344.79 165.939C348.35 167.999 351.91 170.269 354.48 173.499C359.16 179.389 363.78 189.059 364.24 196.569C364.6 202.639 362.24 217.839 359.71 223.359C357.35 228.419 346.33 232.269 340.89 233.519L291 175.459C291.896 172.233 293.425 169.217 295.497 166.587C297.569 163.957 300.143 161.765 303.07 160.139V160.139Z" fill="#263238"/>
<path d="M294.459 167.999L306.459 165.859C299.919 181.439 298.149 217.059 294.399 233.539C289.989 227.139 279.749 207.649 280.299 199.889C280.849 192.129 280.239 166.649 294.459 167.999Z" fill="#263238"/>
<path d="M351.21 193.91C350.996 189.541 349.387 185.355 346.619 181.967C343.851 178.58 340.069 176.169 335.83 175.09L308.27 168.09C296.36 166.81 288.4 181.46 287.62 193.42C286.76 206.7 286.22 220.71 287.77 230.63C290.89 250.56 306.16 253.14 306.16 253.14C306.16 253.14 306.16 262.62 306.16 268.44L330.78 287.95L345.1 265.56L351.26 194.19C351.28 193.81 351.24 194.36 351.21 193.91Z" fill="#FFBE9D"/>
<path d="M293.61 208.43C293.601 209.097 293.854 209.741 294.313 210.225C294.773 210.708 295.403 210.994 296.07 211.02C296.395 211.045 296.722 211.006 297.031 210.904C297.341 210.802 297.627 210.639 297.873 210.425C298.119 210.21 298.32 209.949 298.463 209.656C298.607 209.364 298.691 209.045 298.71 208.72C298.718 208.052 298.465 207.408 298.006 206.925C297.546 206.441 296.916 206.156 296.25 206.13C295.924 206.102 295.597 206.141 295.286 206.242C294.976 206.344 294.689 206.507 294.443 206.721C294.197 206.936 293.996 207.198 293.853 207.491C293.71 207.784 293.627 208.104 293.61 208.43V208.43Z" fill="#263238"/>
<path d="M290.61 201.18C290.93 201.52 292.87 200.09 295.61 200.1C298.35 200.11 300.37 201.5 300.67 201.16C300.82 201.01 300.5 200.41 299.62 199.77C298.433 198.941 297.018 198.501 295.57 198.51C294.136 198.498 292.735 198.942 291.57 199.78C290.75 200.43 290.46 201 290.61 201.18Z" fill="#263238"/>
<path d="M317.59 208.429C317.584 209.085 317.831 209.718 318.28 210.197C318.729 210.676 319.345 210.963 320 210.999C320.325 211.026 320.653 210.988 320.963 210.886C321.273 210.785 321.56 210.622 321.806 210.407C322.052 210.193 322.253 209.931 322.396 209.638C322.54 209.344 322.622 209.025 322.64 208.699C322.651 208.033 322.401 207.389 321.943 206.905C321.485 206.421 320.856 206.135 320.19 206.109C319.866 206.087 319.541 206.13 319.234 206.236C318.928 206.341 318.645 206.507 318.403 206.723C318.161 206.939 317.964 207.201 317.824 207.494C317.685 207.787 317.605 208.105 317.59 208.429Z" fill="#263238"/>
<path d="M316.729 201.18C317.049 201.52 318.989 200.09 321.729 200.1C324.469 200.11 326.499 201.5 326.789 201.16C326.939 201.01 326.619 200.41 325.739 199.77C324.552 198.941 323.137 198.501 321.689 198.51C320.255 198.499 318.854 198.944 317.689 199.78C316.869 200.43 316.579 201 316.729 201.18Z" fill="#263238"/>
<path d="M308.139 222.79C308.139 222.63 306.439 222.33 303.669 221.97C302.969 221.9 302.299 221.75 302.189 221.28C302.128 220.552 302.293 219.822 302.659 219.19L304.749 213.85C307.649 206.24 309.749 199.99 309.449 199.85C309.149 199.71 306.539 205.85 303.639 213.42L301.639 218.8C301.203 219.647 301.072 220.618 301.269 221.55C301.375 221.793 301.534 222.01 301.735 222.183C301.936 222.356 302.173 222.481 302.429 222.55C302.817 222.658 303.217 222.716 303.619 222.72C306.399 222.93 308.129 222.94 308.139 222.79Z" fill="#263238"/>
<path d="M332.6 246C332.6 246 326.11 259.69 306.17 257.78V253.1C315.467 253.226 324.617 250.768 332.6 246V246Z" fill="#EB996E"/>
<path d="M317.599 191.239C317.869 191.989 320.599 191.639 323.839 192.039C327.079 192.439 329.669 193.319 330.099 192.649C330.299 192.329 329.839 191.649 328.789 190.899C327.393 189.996 325.803 189.438 324.149 189.269C322.501 189.061 320.827 189.253 319.269 189.829C318.079 190.299 317.479 190.889 317.599 191.239Z" fill="#263238"/>
<path d="M291.509 192.769C291.989 193.399 293.889 192.769 296.169 192.769C298.449 192.769 300.379 193.199 300.819 192.539C301.019 192.229 300.709 191.599 299.869 191.009C298.74 190.294 297.423 189.932 296.087 189.969C294.751 190.007 293.456 190.442 292.369 191.219C291.559 191.819 291.299 192.459 291.509 192.769Z" fill="#263238"/>
<path d="M292.999 175.169C294.219 172.169 297.509 170.369 300.739 170.169C303.996 170.164 307.186 171.094 309.929 172.849C321.799 179.709 327.929 196.279 339.629 203.379C342.519 205.129 346.269 203.529 348.719 205.839C351.169 208.149 352.769 211.839 351.409 214.929C353.089 212.843 354.46 210.526 355.479 208.049C355.982 206.806 356.213 205.469 356.156 204.128C356.099 202.788 355.756 201.476 355.149 200.279C354.149 198.519 352.339 197.179 351.849 195.209C351.419 193.479 352.099 191.669 352.029 189.879C351.827 188.065 351.2 186.325 350.199 184.799C345.609 176.669 339.289 169.329 331.149 164.799C325.841 161.724 319.793 160.158 313.659 160.269C307.501 160.415 301.598 162.759 297.019 166.879C294.389 169.319 291.639 171.879 293.019 175.169" fill="#263238"/>
<path d="M348.48 208.349C348.69 207.779 359.08 204.029 359.22 215.079C359.35 225.809 348.52 223.699 348.5 223.389C348.48 223.079 348.48 208.349 348.48 208.349Z" fill="#FFBE9D"/>
<path d="M351.77 219.289C351.82 219.289 351.961 219.419 352.281 219.559C352.73 219.738 353.231 219.738 353.68 219.559C354.81 219.129 355.751 217.319 355.781 215.389C355.803 214.465 355.615 213.549 355.231 212.709C355.126 212.375 354.943 212.071 354.696 211.824C354.448 211.576 354.144 211.393 353.811 211.289C353.594 211.243 353.369 211.27 353.17 211.366C352.971 211.462 352.81 211.621 352.71 211.819C352.57 212.119 352.641 212.329 352.591 212.349C352.541 212.369 352.351 212.169 352.441 211.729C352.493 211.461 352.638 211.22 352.851 211.049C353.137 210.833 353.494 210.733 353.851 210.769C354.297 210.847 354.716 211.038 355.066 211.326C355.416 211.613 355.687 211.986 355.851 212.409C356.321 213.337 356.555 214.368 356.531 215.409C356.531 217.569 355.391 219.609 353.841 220.069C353.553 220.155 353.251 220.175 352.955 220.128C352.659 220.082 352.377 219.969 352.131 219.799C351.801 219.549 351.74 219.309 351.77 219.289Z" fill="#EB996E"/>
<path d="M352.749 202.829C352.521 202.731 352.303 202.61 352.099 202.469C351.689 202.209 351.049 201.859 350.299 201.329C348.187 199.776 346.243 198.006 344.499 196.049C341.969 193.114 339.605 190.039 337.419 186.839C334.774 182.935 331.81 179.255 328.559 175.839C326.82 174.134 324.902 172.622 322.839 171.329C320.901 170.144 318.826 169.2 316.659 168.519C312.991 167.34 309.133 166.868 305.289 167.129C302.694 167.284 300.131 167.785 297.669 168.619C296.789 168.889 296.139 169.179 295.669 169.359C295.44 169.461 295.203 169.541 294.959 169.599C295.174 169.472 295.398 169.362 295.629 169.269C296.277 168.949 296.945 168.672 297.629 168.439C300.091 167.526 302.67 166.967 305.289 166.779C309.181 166.474 313.095 166.918 316.819 168.089C319.022 168.77 321.134 169.717 323.109 170.909C325.204 172.223 327.152 173.759 328.919 175.489C332.194 178.933 335.165 182.653 337.799 186.609C339.968 189.81 342.304 192.894 344.799 195.849C346.503 197.813 348.395 199.605 350.449 201.199C351.189 201.759 351.799 202.129 352.189 202.419C352.386 202.54 352.574 202.677 352.749 202.829V202.829Z" fill="#455A64"/>
<path d="M353 221.19C353.527 221.098 354.07 221.209 354.518 221.502C354.965 221.795 355.285 222.247 355.412 222.767C355.539 223.287 355.464 223.835 355.202 224.302C354.94 224.768 354.51 225.118 354 225.28C353.484 225.46 352.918 225.432 352.422 225.203C351.926 224.975 351.537 224.562 351.339 224.053C351.141 223.543 351.148 222.977 351.359 222.473C351.57 221.969 351.968 221.566 352.47 221.35" fill="white"/>
<path d="M352.489 221.348C352.014 221.713 351.665 222.216 351.489 222.788C351.411 223.083 351.409 223.392 351.482 223.687C351.556 223.983 351.702 224.255 351.909 224.478C352.15 224.759 352.468 224.963 352.824 225.064C353.18 225.164 353.558 225.158 353.911 225.044C354.263 224.931 354.574 224.717 354.805 224.427C355.036 224.138 355.176 223.787 355.209 223.418C355.245 223.119 355.207 222.815 355.097 222.534C354.987 222.253 354.809 222.003 354.579 221.808C354.111 221.442 353.542 221.225 352.949 221.188C352.949 221.188 353.119 221.078 353.459 221.068C353.764 221.073 354.066 221.14 354.345 221.265C354.623 221.391 354.873 221.572 355.08 221.798C355.286 222.024 355.443 222.289 355.543 222.578C355.643 222.867 355.682 223.174 355.659 223.478C355.626 223.939 355.455 224.38 355.169 224.743C354.883 225.106 354.495 225.375 354.054 225.515C353.614 225.655 353.142 225.659 352.699 225.528C352.255 225.397 351.862 225.136 351.569 224.778C351.326 224.497 351.159 224.158 351.086 223.793C351.012 223.429 351.034 223.052 351.149 222.698C351.292 222.234 351.579 221.828 351.969 221.538C352.299 221.348 352.479 221.318 352.489 221.348Z" fill="#263238"/>
<path d="M350.051 205.869C350.221 208.799 350.351 211.869 349.001 214.499C347.651 217.129 344.221 218.879 341.681 217.419C339.601 216.239 338.971 213.569 338.621 211.199C337.621 204.369 337.141 197.449 336.061 190.619L350.051 205.869Z" fill="#263238"/>
<path d="M295.68 170.069C295.68 170.129 296.63 169.889 298.35 169.829C300.779 169.79 303.192 170.232 305.45 171.129C307.009 171.734 308.501 172.502 309.9 173.419C311.5 174.499 313.036 175.671 314.5 176.929C317.876 179.788 320.897 183.041 323.5 186.619C324.87 188.529 326.08 190.499 327.38 192.329C328.619 194.105 330.066 195.726 331.69 197.159C334.467 199.528 337.511 201.565 340.76 203.229C343.51 204.689 345.76 205.699 347.39 206.409L349.22 207.189C349.43 207.291 349.651 207.368 349.88 207.419C349.692 207.279 349.487 207.165 349.27 207.079L347.49 206.189C345.93 205.429 343.67 204.349 340.96 202.859C337.781 201.15 334.797 199.102 332.06 196.749C330.481 195.329 329.074 193.728 327.87 191.979C326.58 190.179 325.37 188.209 324 186.269C321.372 182.648 318.305 179.366 314.87 176.499C313.386 175.238 311.826 174.069 310.2 172.999C308.761 172.076 307.225 171.314 305.62 170.729C303.306 169.848 300.832 169.463 298.36 169.599C297.687 169.635 297.018 169.725 296.36 169.869C296.126 169.908 295.897 169.975 295.68 170.069V170.069Z" fill="#455A64"/>
<path d="M350.34 199.239C350.647 199.491 350.982 199.706 351.34 199.879L354.06 201.479L354.98 201.999C355.337 202.212 355.736 202.345 356.15 202.389C356.405 202.414 356.662 202.354 356.88 202.219C356.993 202.135 357.087 202.029 357.155 201.907C357.224 201.784 357.267 201.649 357.28 201.509C357.253 201.014 357.075 200.539 356.77 200.149C355.77 198.599 354.77 196.899 353.62 195.099L353.19 195.499C355.293 197.049 357.871 197.816 360.48 197.669C360.82 197.667 361.158 197.61 361.48 197.499C361.662 197.447 361.831 197.355 361.975 197.231C362.118 197.107 362.232 196.952 362.31 196.779C362.372 196.597 362.388 196.402 362.357 196.211C362.325 196.021 362.247 195.842 362.13 195.689C361.947 195.448 361.743 195.224 361.52 195.019C360.105 193.648 358.874 192.098 357.86 190.409C356.969 188.817 356.194 187.162 355.54 185.459C355.586 185.956 355.7 186.444 355.88 186.909C356.293 188.196 356.833 189.438 357.49 190.619C358.475 192.38 359.7 193.995 361.13 195.419C361.53 195.799 361.93 196.229 361.77 196.569C361.61 196.909 361.04 197.079 360.47 197.079C357.999 197.199 355.562 196.472 353.56 195.019L352.28 194.079L353.14 195.419L356.36 200.419C356.6 200.704 356.756 201.05 356.81 201.419C356.804 201.491 356.784 201.56 356.749 201.623C356.714 201.686 356.666 201.741 356.608 201.784C356.55 201.827 356.484 201.856 356.413 201.871C356.343 201.886 356.27 201.885 356.2 201.869C355.51 201.737 354.854 201.468 354.27 201.079L351.46 199.639C351.105 199.458 350.729 199.324 350.34 199.239Z" fill="#455A64"/>
<path d="M318.599 227.859C318.397 227.043 317.916 226.322 317.238 225.823C316.56 225.325 315.729 225.079 314.889 225.129C314.277 225.21 313.694 225.439 313.19 225.796C312.686 226.153 312.278 226.628 311.999 227.179C311.736 227.737 311.587 228.342 311.559 228.958C311.532 229.575 311.627 230.19 311.839 230.769L311.899 231.029C312.47 231.65 313.218 232.079 314.041 232.258C314.864 232.437 315.723 232.357 316.499 232.029C317.26 231.663 317.878 231.056 318.258 230.301C318.638 229.547 318.758 228.689 318.599 227.859V227.859Z" fill="#EB996E"/>
<path d="M309.899 231.09C309.899 230.67 312.679 230.8 314.779 228.52C316.879 226.24 316.709 223.26 317.099 223.26C317.279 223.26 317.609 223.95 317.579 225.2C317.521 226.83 316.891 228.388 315.799 229.6C314.754 230.776 313.288 231.494 311.719 231.6C310.549 231.62 309.879 231.28 309.899 231.09Z" fill="#263238"/>
<path d="M278.499 380.42L279.799 387.99L278.579 392.11C278.579 392.11 266.009 408.11 261.979 419.89C257.949 431.67 257.639 462.7 257.639 462.7L400.839 462.61C400.839 462.61 395.839 416.52 377.839 402.01V398.7L382.289 392.11C382.289 392.11 383.789 387.01 377.289 387.77C374.709 388.07 278.499 380.42 278.499 380.42Z" fill="#455A64"/>
<path d="M378.64 397.578H377.64L374.729 397.508C372.209 397.448 368.559 397.398 364.039 397.428C359.519 397.458 354.149 397.558 348.179 397.678C342.209 397.798 335.649 397.918 328.749 397.808C322.263 397.72 315.785 397.306 309.339 396.568C304.076 395.962 298.858 395.01 293.719 393.718C290.256 392.855 286.846 391.786 283.51 390.518C282.32 390.088 281.429 389.668 280.809 389.418L280.119 389.108C279.959 389.038 279.88 388.998 279.89 388.988L280.14 389.058L280.849 389.318C281.479 389.538 282.379 389.928 283.579 390.318C286.935 391.494 290.35 392.496 293.809 393.318C298.944 394.551 304.151 395.459 309.399 396.038C315.319 396.728 321.87 397.108 328.76 397.238C335.65 397.368 342.2 397.238 348.17 397.148C354.14 397.058 359.519 396.978 364.039 397.008C368.559 397.038 372.219 397.128 374.739 397.258C375.999 397.308 376.98 397.378 377.64 397.428L378.399 397.488C378.559 397.548 378.65 397.568 378.64 397.578Z" fill="#263238"/>
<path d="M378.64 404.219C378.557 404.235 378.472 404.235 378.39 404.219H377.63L374.72 404.149C372.2 404.089 368.55 404.039 364.03 404.069C359.51 404.099 354.14 404.199 348.17 404.319C342.2 404.439 335.64 404.559 328.74 404.449C321.84 404.339 315.27 403.919 309.33 403.209C304.066 402.603 298.848 401.65 293.71 400.359C290.245 399.493 286.836 398.421 283.5 397.149C282.31 396.719 281.42 396.309 280.8 396.059L280.11 395.749C279.95 395.679 279.87 395.639 279.88 395.629L280.13 395.699L280.84 395.959C281.47 396.179 282.37 396.559 283.57 396.959C286.925 398.136 290.34 399.137 293.8 399.959C298.934 401.192 304.141 402.1 309.39 402.679C315.31 403.369 321.86 403.749 328.75 403.879C335.64 404.009 342.19 403.879 348.16 403.789C354.13 403.699 359.51 403.619 364.03 403.649C368.55 403.679 372.21 403.769 374.73 403.899C375.99 403.949 376.97 404.019 377.63 404.069L378.39 404.129C378.56 404.199 378.65 404.209 378.64 404.219Z" fill="#263238"/>
<path d="M284.629 411.999C284.709 411.291 284.898 410.6 285.189 409.949C285.782 408.339 286.539 406.794 287.449 405.339C288.349 403.881 289.394 402.517 290.569 401.269C291.024 400.721 291.56 400.246 292.159 399.859C292.279 399.969 289.959 402.239 287.889 405.609C285.819 408.979 284.779 411.999 284.629 411.999Z" fill="#263238"/>
<path d="M289.719 421.209C289.656 420.933 289.639 420.65 289.669 420.369C289.677 419.603 289.727 418.839 289.819 418.079C290.124 415.57 290.666 413.095 291.439 410.689C292.195 408.285 293.138 405.945 294.259 403.689C294.678 402.73 295.198 401.818 295.809 400.969C295.461 401.949 295.053 402.908 294.589 403.839C293.583 406.124 292.699 408.461 291.939 410.839C291.178 413.223 290.593 415.659 290.189 418.129C289.879 419.999 289.799 421.219 289.719 421.209Z" fill="#263238"/>
<path d="M293.109 385C293.258 385.454 293.356 385.924 293.399 386.4C293.633 387.514 293.947 388.611 294.339 389.68C295.229 392.2 296.419 394.05 296.339 394.13C295.209 392.912 294.375 391.451 293.899 389.86C293.483 388.763 293.211 387.617 293.089 386.45C292.974 385.973 292.981 385.474 293.109 385V385Z" fill="#263238"/>
<path d="M297.35 388C297.861 389.043 298.218 390.154 298.41 391.3C298.772 392.404 298.965 393.558 298.98 394.72C298.1 392.575 297.55 390.309 297.35 388Z" fill="#263238"/>
<path d="M322.94 387C323.286 390.391 323.286 393.809 322.94 397.2C322.593 393.809 322.593 390.391 322.94 387V387Z" fill="#263238"/>
<path d="M326.139 389.609C326.887 392.167 326.817 394.894 325.939 397.409C325.789 397.409 326.079 395.649 326.129 393.509C326.179 391.369 325.999 389.629 326.139 389.609Z" fill="#263238"/>
<path d="M334.79 413.219C334.421 411.778 334.141 410.315 333.95 408.839C333.586 407.392 333.318 405.922 333.15 404.439C333.826 405.789 334.268 407.243 334.46 408.739C334.827 410.203 334.939 411.718 334.79 413.219V413.219Z" fill="#263238"/>
<path d="M249 313.509C248.72 312.599 259.24 282.509 265.48 277.949C271.72 273.389 299.89 266.858 299.89 266.858C299.89 266.858 311.75 278.559 327.65 276.129C343.55 273.699 355.76 262.479 355.76 262.479C355.76 262.479 385.85 266.419 390.96 270.059C396.07 273.699 409.96 306.689 409.96 306.689L385.44 327.118L383.27 345.618C383.27 345.618 384.41 384.149 381.85 388.099C379.29 392.049 279.09 381.999 279.09 381.999C279.09 381.999 273.98 381.089 277.95 371.999C281.92 362.909 284.77 356.828 284.77 356.828C284.77 356.828 277.67 348.939 276.53 334.979C275.39 321.019 272.6 319.518 272.6 319.518L249 313.509Z" fill="#2631FF"/>
<path d="M383.139 344.909C382.989 344.909 384.499 332.349 386.509 316.909C388.519 301.469 390.249 288.909 390.389 288.959C390.529 289.009 388.999 301.509 386.999 316.999C384.999 332.489 383.279 344.929 383.139 344.909Z" fill="#263238"/>
<path d="M275.739 324.638C275.609 324.688 273.739 320.188 271.549 314.578C269.359 308.968 267.709 304.388 267.839 304.338C267.969 304.288 269.839 308.788 272.039 314.388C274.239 319.988 275.879 324.588 275.739 324.638Z" fill="#263238"/>
<g opacity="0.3">
<path d="M307.509 340.668C307.056 338.063 305.971 335.608 304.349 333.518C301.999 330.858 298.279 329.728 294.739 329.748C291.19 329.938 287.685 330.628 284.329 331.798L277.939 341.798C278.148 342.402 278.49 342.952 278.94 343.405C279.39 343.859 279.937 344.205 280.539 344.418C281.743 344.837 283.005 345.063 284.279 345.088C290.893 345.568 297.506 345.845 304.119 345.918C304.973 346.007 305.834 345.847 306.599 345.458C307.999 344.478 307.899 342.348 307.509 340.668Z" fill="black"/>
</g>
<path d="M263.84 294.818C264.052 295.147 264.227 295.5 264.36 295.868C264.67 296.548 265.09 297.548 265.59 298.798C266.59 301.288 267.93 304.798 269.28 308.628C270.63 312.458 271.75 316.038 272.5 318.628C272.88 319.908 273.18 320.958 273.36 321.688C273.488 322.056 273.569 322.44 273.6 322.828C273.419 322.484 273.275 322.122 273.17 321.748L272.17 318.748C271.33 316.198 270.17 312.678 268.81 308.818C267.45 304.958 266.19 301.468 265.27 298.948C264.84 297.768 264.48 296.768 264.19 295.948C264.029 295.587 263.911 295.208 263.84 294.818Z" fill="#263238"/>
<path d="M263.79 297.999L275 338.889C275.196 339.558 275.607 340.144 276.169 340.556C276.731 340.968 277.413 341.184 278.11 341.169H302.42C302.888 341.185 303.354 341.094 303.782 340.904C304.21 340.713 304.589 340.428 304.89 340.07C305.192 339.712 305.408 339.29 305.522 338.835C305.636 338.381 305.646 337.907 305.55 337.449L295.72 296.579C295.541 295.89 295.134 295.281 294.566 294.851C293.999 294.421 293.303 294.195 292.59 294.209H266.89C266.417 294.193 265.946 294.286 265.515 294.482C265.083 294.678 264.703 294.97 264.403 295.337C264.103 295.704 263.892 296.135 263.785 296.596C263.679 297.058 263.681 297.538 263.79 297.999Z" fill="#263238"/>
<path d="M272.23 305.639C272.23 305.639 269.33 304.259 267.04 305.639C264.75 307.019 261.04 313.119 261.04 313.119L258.75 322.819L260.32 335.999L260.94 342.109L275.74 343.789V338.899L292.69 326.229C292.69 326.229 298.64 324.579 298.18 322.809C297.72 321.039 296.96 319.809 295.28 320.129C293.6 320.449 275.44 325.129 275.44 325.129C275.44 325.129 272.54 325.739 272.69 324.969C272.84 324.199 281.24 320.239 282.61 319.319C283.98 318.399 290.4 316.879 289.61 313.979C289.515 313.456 289.302 312.961 288.988 312.532C288.674 312.103 288.267 311.751 287.797 311.502C287.328 311.252 286.808 311.113 286.277 311.093C285.745 311.074 285.217 311.175 284.73 311.389L270.07 316.729L267.63 317.339L267.94 313.519L270.53 310.009C270.762 310.082 271.006 310.108 271.248 310.085C271.49 310.062 271.724 309.99 271.938 309.875C272.152 309.759 272.34 309.601 272.492 309.411C272.643 309.221 272.755 309.003 272.82 308.769C273.025 308.244 273.079 307.672 272.975 307.119C272.87 306.565 272.612 306.052 272.23 305.639V305.639Z" fill="#FFBE9D"/>
<path d="M270.26 316.658C269.134 317.303 267.927 317.794 266.67 318.118C265.472 318.622 264.21 318.959 262.92 319.118C264.048 318.478 265.255 317.988 266.51 317.658C267.71 317.16 268.971 316.823 270.26 316.658Z" fill="#EB996E"/>
<path d="M273.6 325.469C272.549 326.048 271.421 326.476 270.25 326.739C269.127 327.168 267.948 327.43 266.75 327.519C268.922 326.517 271.23 325.843 273.6 325.519V325.469Z" fill="#EB996E"/>
<path d="M291.76 326.379C291.5 326.585 291.215 326.757 290.91 326.889C290.34 327.189 289.51 327.599 288.46 328.079C285.741 329.307 282.961 330.395 280.13 331.339C277.299 332.29 274.418 333.088 271.5 333.729C270.38 333.979 269.5 334.149 268.83 334.249C268.502 334.325 268.167 334.362 267.83 334.359C268.999 333.956 270.192 333.622 271.4 333.359C273.61 332.789 276.65 331.939 279.95 330.839C283.25 329.739 286.19 328.589 288.31 327.729C289.434 327.214 290.586 326.764 291.76 326.379V326.379Z" fill="#EB996E"/>
<path d="M264.92 333.549C264.87 333.679 263.92 333.179 263.62 332.019C263.32 330.859 263.82 329.949 263.93 330.019C264.04 330.089 263.84 330.899 264.12 331.859C264.4 332.819 265 333.429 264.92 333.549Z" fill="#EB996E"/>
<path d="M261.999 325.839C261.999 325.899 261.729 325.839 261.389 325.669C260.964 325.377 260.644 324.955 260.478 324.467C260.313 323.978 260.309 323.449 260.469 322.959C260.609 322.589 260.789 322.419 260.849 322.449C260.909 322.479 260.629 323.339 260.979 324.299C261.329 325.259 261.999 325.699 261.999 325.839Z" fill="#EB996E"/>
<path d="M260.309 316.398C260.317 316.56 260.3 316.722 260.259 316.878C260.189 317.248 260.099 317.688 259.999 318.238C259.749 319.498 259.399 321.238 258.999 323.298V323.238C259.649 327.878 260.539 334.598 261.509 342.138V342.198V342.268C261.319 342.778 261.109 343.318 260.909 343.868C258.727 350.038 257.71 356.558 257.909 363.098C257.964 365.079 258.128 367.055 258.399 369.018C258.489 369.668 258.559 370.198 258.619 370.618C258.66 370.805 258.677 370.997 258.669 371.188C258.602 371.01 258.552 370.826 258.519 370.638C258.439 370.278 258.309 369.748 258.189 369.048C257.849 367.084 257.632 365.1 257.539 363.108C257.228 356.509 258.206 349.913 260.419 343.688C260.619 343.138 260.829 342.588 261.019 342.078V342.208C260.019 334.658 259.219 327.938 258.679 323.278L259.869 318.278C260.009 317.738 260.119 317.278 260.209 316.938C260.228 316.756 260.262 316.576 260.309 316.398Z" fill="#EB996E"/>
<path d="M278.179 337.469C277.218 338.46 276.065 339.242 274.789 339.769C273.584 340.444 272.253 340.863 270.879 340.999C270.879 340.859 272.559 340.279 274.559 339.299C276.559 338.319 278.089 337.339 278.179 337.469Z" fill="#EB996E"/>
<path d="M372 358.249C372 358.249 375.87 359.249 376.25 361.769C376.63 364.289 373.54 407.769 373.54 407.769H377.22C377.22 407.769 378.69 364.699 378.63 361.619C378.57 358.539 377.11 358.339 376.56 358.119C375.063 357.688 373.47 357.734 372 358.249Z" fill="#263238"/>
<path d="M370.05 358.17L387.76 358.85L384.23 337.47L385.44 327.12L408.91 307.52C408.91 307.52 417.12 355.14 417.86 360.64C418.74 367.24 417.46 375.99 414.26 379.12C411.53 381.78 391.86 379.12 384.26 379.12C380.06 379.12 370.02 379.19 370.02 379.19L366.5 362.77L370.05 358.17Z" fill="#FFBE9D"/>
<path d="M414.26 358.91C414.19 359 412.99 357.91 410.68 356.91C407.687 355.557 404.406 354.966 401.13 355.19C399.335 355.31 397.567 355.687 395.88 356.31C394.33 356.87 392.99 357.61 391.8 358.07C390.862 358.469 389.872 358.732 388.86 358.85C388.493 358.919 388.117 358.919 387.75 358.85C389.099 358.7 390.416 358.335 391.65 357.77C392.81 357.27 394.12 356.51 395.71 355.9C397.436 355.233 399.253 354.831 401.1 354.71C404.457 354.478 407.816 355.133 410.84 356.61C411.745 357.059 412.608 357.588 413.42 358.19C413.727 358.396 414.009 358.638 414.26 358.91V358.91Z" fill="#EB996E"/>
<path d="M351.79 397.6C351.14 398.43 343.66 462.87 343.66 462.87L421.39 462.61L409.07 397.8L351.79 397.6Z" fill="#2631FF"/>
<path d="M364.68 462.7C364.54 462.7 363.73 448.22 362.88 430.34C362.03 412.46 361.46 398 361.61 398C361.76 398 362.55 412.48 363.4 430.36C364.25 448.24 364.82 462.69 364.68 462.7Z" fill="#263238"/>
<path d="M332.999 359.249C335.146 358.937 337.271 358.486 339.359 357.899C340.338 357.423 341.283 356.881 342.189 356.279L352.189 355.469L370.039 358.169C370.039 358.169 373.039 360.329 372.609 366.959C372.244 371.399 371.289 375.771 369.769 379.959C369.769 379.959 361.769 386.469 359.629 386.869C357.489 387.269 345.289 386.589 344.079 385.639C343.364 385.097 342.766 384.417 342.319 383.639C341.668 383.306 341.143 382.769 340.825 382.11C340.507 381.451 340.414 380.706 340.559 379.989C340.559 379.989 336.369 374.579 335.829 372.279C335.289 369.979 335.959 369.439 335.959 369.439C335.959 369.439 334.749 366.329 335.689 365.249C335.926 364.985 336.213 364.772 336.534 364.622C336.855 364.472 337.203 364.389 337.557 364.377C337.911 364.365 338.263 364.424 338.594 364.552C338.924 364.679 339.225 364.872 339.479 365.119C340.429 366.199 346.379 365.389 346.379 365.389L351.649 361.869C348.937 362.558 346.181 363.056 343.399 363.359C340.569 363.439 332.049 365.339 332.999 359.249Z" fill="#FFBE9D"/>
<path d="M353.689 372C353.689 372.08 352.599 372.27 350.899 372.86C350.049 373.15 349.039 373.53 347.899 373.86C346.647 374.28 345.339 374.516 344.019 374.56C342.666 374.602 341.33 374.255 340.169 373.56C339.251 372.979 338.437 372.249 337.759 371.4C337.305 370.84 336.888 370.253 336.509 369.64C336.239 369.21 336.109 368.96 336.139 368.94C336.169 368.92 336.849 369.82 338.039 371.16C338.72 371.946 339.52 372.62 340.409 373.16C341.504 373.782 342.751 374.087 344.009 374.04C346.709 373.97 349.009 372.94 350.799 372.48C351.727 372.154 352.705 371.991 353.689 372V372Z" fill="#EB996E"/>
<path d="M357.329 367.238C357.379 367.238 357.569 367.358 357.709 367.728C357.879 368.21 357.879 368.736 357.709 369.218C357.546 369.705 357.216 370.119 356.779 370.388C356.439 370.588 356.199 370.588 356.169 370.528C356.139 370.468 356.899 369.998 357.219 369.048C357.539 368.098 357.199 367.298 357.329 367.238Z" fill="#EB996E"/>
<path d="M356.931 379.069C356.112 379.305 355.271 379.456 354.421 379.519C352.861 379.739 350.701 379.999 348.321 380.249C347.193 380.4 346.058 380.487 344.921 380.509C343.975 380.527 343.034 380.378 342.141 380.069C341.285 379.838 340.544 379.301 340.061 378.559C340.727 379.06 341.47 379.451 342.261 379.719C343.124 379.967 344.023 380.072 344.921 380.029C345.921 380.029 347.071 379.859 348.261 379.739C350.651 379.479 352.811 379.279 354.381 379.159C355.225 379.043 356.08 379.013 356.931 379.069Z" fill="#EB996E"/>
<path d="M361.549 374.789C361.609 374.789 361.799 374.989 361.929 375.439C362.1 376.027 362.1 376.651 361.929 377.239C361.762 377.828 361.437 378.361 360.989 378.779C360.639 379.079 360.359 379.169 360.329 379.119C360.299 379.069 361.099 378.319 361.429 377.119C361.563 376.35 361.604 375.568 361.549 374.789Z" fill="#EB996E"/>
<path d="M358.68 384.52C357.906 384.747 357.106 384.868 356.3 384.88C352.432 385.188 348.54 384.946 344.74 384.16C343.94 384.051 343.16 383.832 342.42 383.51C343.22 383.535 344.017 383.632 344.8 383.8C346.26 384.02 348.28 384.27 350.52 384.41C352.76 384.55 354.8 384.55 356.28 384.52C357.078 384.444 357.882 384.444 358.68 384.52V384.52Z" fill="#EB996E"/>
<path d="M375.6 357.879C375.6 357.879 379.1 360.499 379.75 362.089C380.4 363.679 387.39 397.589 387.39 397.589H390.39C390.39 397.589 383.26 360.849 381.52 359.429C380.894 358.924 380.225 358.475 379.52 358.089C378.931 357.778 378.284 357.597 377.62 357.557C376.955 357.517 376.291 357.62 375.67 357.859L375.6 357.879Z" fill="#263238"/>
<path d="M307.309 364.54C306.313 364.672 305.304 364.672 304.309 364.54C299.552 364.094 294.966 362.539 290.919 360C290.058 359.511 289.262 358.916 288.549 358.23C288.599 358.16 289.549 358.8 291.109 359.68C293.156 360.842 295.309 361.807 297.539 362.56C299.768 363.307 302.061 363.85 304.389 364.18C306.189 364.4 307.309 364.46 307.309 364.54Z" fill="#263238"/>
<g opacity="0.3">
<path d="M324.84 364C323.005 363.84 321.157 363.911 319.34 364.21C309.99 365.21 300.34 365.21 291.77 360.42C293 362.991 295.106 365.04 297.71 366.2C300.674 367.213 303.787 367.723 306.92 367.71C314.441 368.017 321.975 367.683 329.44 366.71C328.921 365.946 328.239 365.307 327.444 364.838C326.649 364.369 325.759 364.083 324.84 364V364Z" fill="black"/>
</g>
<path d="M296.29 268.001C296.29 264.453 294.88 261.049 292.371 258.54C289.862 256.031 286.458 254.621 282.91 254.621H201.45C197.966 254.716 194.657 256.167 192.226 258.665C189.795 261.163 188.436 264.511 188.436 267.996C188.436 271.481 189.795 274.829 192.226 277.327C194.657 279.825 197.966 281.276 201.45 281.371H250.14C254.71 285.781 262.52 291.731 262.52 291.731V280.881L283.89 281.311C291.2 281.091 296.29 275.001 296.29 268.001Z" fill="white"/>
<path d="M296.291 268.001C296.291 268.001 296.291 268.241 296.291 268.731C296.272 269.45 296.192 270.166 296.051 270.871C295.83 272.021 295.468 273.14 294.971 274.201C294.268 275.648 293.313 276.958 292.151 278.071C290.679 279.455 288.89 280.458 286.941 280.991C286.397 281.135 285.846 281.252 285.291 281.341C284.71 281.408 284.125 281.445 283.541 281.451L279.851 281.391L262.531 281.081L262.721 280.891C262.721 284.311 262.721 287.941 262.721 291.721V292.151L262.391 291.891C258.391 288.801 254.121 285.441 249.971 281.531L250.131 281.601H220.631H204.581C203.201 281.601 201.851 281.651 200.431 281.551C197.705 281.335 195.106 280.31 192.968 278.607C190.83 276.903 189.25 274.599 188.431 271.991C188.103 270.898 187.909 269.77 187.851 268.631C187.8 267.499 187.88 266.365 188.091 265.251C188.325 264.148 188.691 263.077 189.181 262.061C190.139 260.062 191.572 258.329 193.356 257.013C195.139 255.696 197.218 254.837 199.411 254.511C200.474 254.365 201.548 254.308 202.621 254.341H224.001L265.591 254.401H281.591C282.73 254.364 283.871 254.424 285.001 254.581C286.05 254.746 287.076 255.032 288.061 255.431C289.776 256.147 291.324 257.209 292.611 258.551C293.641 259.612 294.48 260.843 295.091 262.191C295.339 262.728 295.556 263.279 295.741 263.841C295.881 264.361 296.001 264.841 296.091 265.261C296.215 265.921 296.285 266.59 296.301 267.261C296.301 267.711 296.301 267.941 296.301 267.941C296.301 267.941 296.301 267.711 296.241 267.261C296.198 266.589 296.111 265.921 295.981 265.261C295.881 264.841 295.751 264.371 295.601 263.861C295.418 263.307 295.197 262.765 294.941 262.241C294.325 260.915 293.482 259.707 292.451 258.671C291.173 257.376 289.646 256.355 287.961 255.671C286.995 255.287 285.988 255.015 284.961 254.861C283.844 254.71 282.716 254.656 281.591 254.701H265.591H224.001H202.621C201.575 254.664 200.527 254.717 199.491 254.861C196.841 255.278 194.381 256.489 192.436 258.336C190.492 260.183 189.154 262.577 188.601 265.201C188.186 267.359 188.296 269.584 188.921 271.691C189.259 272.742 189.722 273.75 190.301 274.691C191.38 276.458 192.866 277.942 194.635 279.019C196.404 280.095 198.405 280.734 200.471 280.881C201.811 280.981 203.221 280.881 204.581 280.931H220.641H250.141H250.231L250.301 280.991C254.411 284.881 258.671 288.251 262.651 291.351L262.311 291.511C262.311 287.731 262.311 284.101 262.311 280.681V280.491H262.511L279.821 280.881C282.361 280.881 284.761 281.191 286.821 280.531C288.733 280.082 290.51 279.18 292.001 277.901C293.155 276.818 294.106 275.538 294.811 274.121C295.633 272.431 296.115 270.596 296.231 268.721C296.261 268.231 296.291 268.001 296.291 268.001Z" fill="#263238"/>
<path d="M278.71 272.169C278.497 272.184 278.283 272.184 278.07 272.169C277.109 272.041 276.207 271.63 275.478 270.99C274.75 270.349 274.227 269.507 273.977 268.57C273.727 267.633 273.759 266.642 274.071 265.724C274.383 264.805 274.96 264 275.73 263.409C276.499 262.818 277.426 262.468 278.394 262.403C279.362 262.339 280.327 262.563 281.168 263.046C282.009 263.53 282.688 264.252 283.119 265.121C283.55 265.99 283.714 266.967 283.59 267.929C283.424 269.105 282.839 270.182 281.942 270.961C281.046 271.74 279.898 272.169 278.71 272.169V272.169ZM278.71 263.339C277.761 263.339 276.844 263.685 276.131 264.313C275.419 264.941 274.96 265.807 274.84 266.749C274.71 267.778 274.99 268.816 275.622 269.638C276.253 270.46 277.183 271 278.21 271.139C279.241 271.273 280.282 270.992 281.105 270.358C281.928 269.724 282.466 268.789 282.6 267.759C282.668 267.25 282.634 266.732 282.501 266.235C282.368 265.739 282.139 265.273 281.826 264.866C281.513 264.458 281.122 264.116 280.677 263.859C280.232 263.602 279.74 263.436 279.23 263.369C279.054 263.349 278.878 263.339 278.7 263.339H278.71Z" fill="#263238"/>
<path d="M285.39 273.318C285.273 273.316 285.16 273.274 285.07 273.198L281.86 270.518C281.81 270.476 281.768 270.425 281.737 270.367C281.707 270.309 281.688 270.245 281.682 270.179C281.676 270.114 281.683 270.048 281.702 269.985C281.722 269.922 281.753 269.864 281.795 269.813C281.837 269.763 281.889 269.721 281.947 269.69C282.005 269.66 282.069 269.641 282.134 269.635C282.2 269.629 282.266 269.636 282.329 269.655C282.391 269.675 282.45 269.706 282.5 269.748L285.71 272.428C285.812 272.514 285.877 272.636 285.89 272.769C285.903 272.902 285.864 273.034 285.78 273.138C285.733 273.196 285.673 273.241 285.606 273.272C285.538 273.304 285.465 273.319 285.39 273.318Z" fill="#263238"/>
<path d="M200.661 272V263.273H206.746V264.986H202.77V266.776H206.435V268.493H202.77V270.287H206.746V272H200.661ZM212.784 265.889C212.756 265.577 212.629 265.334 212.405 265.161C212.183 264.984 211.866 264.896 211.455 264.896C211.182 264.896 210.955 264.932 210.773 265.003C210.591 265.074 210.455 265.172 210.364 265.297C210.273 265.419 210.226 265.56 210.223 265.719C210.217 265.849 210.243 265.964 210.3 266.064C210.359 266.163 210.445 266.251 210.555 266.328C210.669 266.402 210.805 266.467 210.964 266.524C211.124 266.581 211.303 266.631 211.501 266.673L212.251 266.844C212.683 266.938 213.064 267.062 213.393 267.219C213.726 267.375 214.004 267.561 214.229 267.777C214.456 267.993 214.628 268.241 214.744 268.523C214.861 268.804 214.92 269.119 214.923 269.469C214.92 270.02 214.781 270.493 214.506 270.888C214.23 271.283 213.834 271.585 213.317 271.795C212.803 272.006 212.182 272.111 211.455 272.111C210.724 272.111 210.088 272.001 209.545 271.783C209.003 271.564 208.581 271.232 208.28 270.786C207.979 270.339 207.824 269.776 207.815 269.094H209.835C209.852 269.375 209.928 269.609 210.061 269.797C210.195 269.984 210.378 270.126 210.611 270.223C210.847 270.32 211.119 270.368 211.429 270.368C211.713 270.368 211.955 270.33 212.153 270.253C212.355 270.176 212.51 270.07 212.618 269.933C212.726 269.797 212.781 269.641 212.784 269.464C212.781 269.3 212.73 269.159 212.631 269.043C212.531 268.923 212.378 268.821 212.17 268.736C211.966 268.648 211.705 268.567 211.386 268.493L210.474 268.28C209.719 268.107 209.124 267.827 208.689 267.44C208.254 267.051 208.038 266.526 208.041 265.864C208.038 265.324 208.183 264.851 208.476 264.445C208.768 264.038 209.173 263.722 209.69 263.494C210.207 263.267 210.797 263.153 211.459 263.153C212.135 263.153 212.722 263.268 213.219 263.499C213.719 263.726 214.107 264.045 214.382 264.457C214.658 264.869 214.798 265.347 214.804 265.889H212.784ZM215.703 264.986V263.273H223.08V264.986H220.433V272H218.354V264.986H215.703ZM224.908 272H222.641L225.585 263.273H228.393L231.338 272H229.071L227.021 265.472H226.953L224.908 272ZM224.605 268.565H229.344V270.168H224.605V268.565ZM239.789 266.435H237.659C237.63 266.216 237.572 266.018 237.484 265.842C237.396 265.666 237.279 265.516 237.135 265.391C236.99 265.266 236.818 265.17 236.619 265.105C236.423 265.037 236.206 265.003 235.967 265.003C235.544 265.003 235.179 265.107 234.872 265.314C234.568 265.521 234.333 265.821 234.169 266.213C234.007 266.605 233.926 267.08 233.926 267.636C233.926 268.216 234.008 268.702 234.173 269.094C234.341 269.483 234.575 269.777 234.876 269.976C235.18 270.172 235.539 270.27 235.954 270.27C236.187 270.27 236.399 270.24 236.589 270.18C236.782 270.121 236.951 270.034 237.096 269.92C237.244 269.804 237.365 269.663 237.458 269.499C237.555 269.331 237.622 269.142 237.659 268.932L239.789 268.945C239.752 269.331 239.64 269.712 239.453 270.087C239.268 270.462 239.014 270.804 238.69 271.114C238.366 271.42 237.971 271.665 237.505 271.847C237.042 272.028 236.511 272.119 235.912 272.119C235.122 272.119 234.414 271.946 233.789 271.599C233.167 271.25 232.676 270.741 232.315 270.074C231.954 269.406 231.774 268.594 231.774 267.636C231.774 266.676 231.957 265.862 232.324 265.195C232.69 264.527 233.186 264.02 233.811 263.673C234.436 263.327 235.136 263.153 235.912 263.153C236.44 263.153 236.929 263.227 237.377 263.375C237.826 263.52 238.221 263.733 238.562 264.014C238.903 264.293 239.18 264.635 239.393 265.041C239.606 265.447 239.738 265.912 239.789 266.435ZM235.456 271.953H236.291L236.223 272.337C236.535 272.382 236.785 272.494 236.973 272.673C237.16 272.855 237.255 273.091 237.258 273.381C237.261 273.824 237.049 274.173 236.623 274.429C236.2 274.688 235.61 274.817 234.855 274.817L234.846 273.96C235.235 273.96 235.537 273.916 235.75 273.828C235.963 273.74 236.074 273.607 236.082 273.428C236.091 273.263 236.027 273.131 235.89 273.031C235.754 272.935 235.542 272.868 235.255 272.831L235.456 271.953ZM249.234 267.636C249.234 268.597 249.049 269.411 248.68 270.078C248.31 270.746 247.81 271.253 247.18 271.599C246.552 271.946 245.847 272.119 245.066 272.119C244.282 272.119 243.576 271.945 242.948 271.595C242.32 271.246 241.822 270.739 241.452 270.074C241.086 269.406 240.903 268.594 240.903 267.636C240.903 266.676 241.086 265.862 241.452 265.195C241.822 264.527 242.32 264.02 242.948 263.673C243.576 263.327 244.282 263.153 245.066 263.153C245.847 263.153 246.552 263.327 247.18 263.673C247.81 264.02 248.31 264.527 248.68 265.195C249.049 265.862 249.234 266.676 249.234 267.636ZM247.077 267.636C247.077 267.068 246.996 266.588 246.835 266.196C246.675 265.804 246.445 265.507 246.144 265.305C245.846 265.104 245.487 265.003 245.066 265.003C244.648 265.003 244.289 265.104 243.988 265.305C243.687 265.507 243.455 265.804 243.293 266.196C243.134 266.588 243.055 267.068 243.055 267.636C243.055 268.205 243.134 268.685 243.293 269.077C243.455 269.469 243.687 269.766 243.988 269.967C244.289 270.169 244.648 270.27 245.066 270.27C245.487 270.27 245.846 270.169 246.144 269.967C246.445 269.766 246.675 269.469 246.835 269.077C246.996 268.685 247.077 268.205 247.077 267.636ZM243.877 262.416L242.795 262.412C242.795 261.832 242.931 261.395 243.204 261.099C243.479 260.804 243.816 260.656 244.214 260.656C244.421 260.656 244.599 260.69 244.746 260.759C244.897 260.824 245.031 260.901 245.147 260.989C245.263 261.077 245.371 261.155 245.471 261.223C245.57 261.288 245.677 261.321 245.79 261.321C245.955 261.321 246.076 261.261 246.153 261.142C246.232 261.023 246.273 260.862 246.276 260.661L247.342 260.673C247.336 261.244 247.195 261.68 246.92 261.982C246.647 262.28 246.315 262.432 245.923 262.438C245.707 262.44 245.523 262.408 245.373 262.339C245.225 262.271 245.096 262.193 244.985 262.105C244.877 262.017 244.773 261.939 244.674 261.871C244.575 261.803 244.465 261.768 244.346 261.768C244.204 261.768 244.09 261.825 244.005 261.939C243.92 262.053 243.877 262.212 243.877 262.416ZM250.465 272V263.273H256.55V264.986H252.575V266.776H256.239V268.493H252.575V270.287H256.55V272H250.465ZM262.589 265.889C262.56 265.577 262.434 265.334 262.21 265.161C261.988 264.984 261.671 264.896 261.259 264.896C260.987 264.896 260.759 264.932 260.577 265.003C260.396 265.074 260.259 265.172 260.168 265.297C260.077 265.419 260.031 265.56 260.028 265.719C260.022 265.849 260.048 265.964 260.104 266.064C260.164 266.163 260.249 266.251 260.36 266.328C260.474 266.402 260.61 266.467 260.769 266.524C260.928 266.581 261.107 266.631 261.306 266.673L262.056 266.844C262.488 266.938 262.869 267.062 263.198 267.219C263.531 267.375 263.809 267.561 264.033 267.777C264.261 267.993 264.433 268.241 264.549 268.523C264.665 268.804 264.725 269.119 264.728 269.469C264.725 270.02 264.586 270.493 264.31 270.888C264.035 271.283 263.638 271.585 263.121 271.795C262.607 272.006 261.987 272.111 261.259 272.111C260.529 272.111 259.893 272.001 259.35 271.783C258.808 271.564 258.386 271.232 258.085 270.786C257.783 270.339 257.629 269.776 257.62 269.094H259.64C259.657 269.375 259.732 269.609 259.866 269.797C259.999 269.984 260.183 270.126 260.415 270.223C260.651 270.32 260.924 270.368 261.234 270.368C261.518 270.368 261.759 270.33 261.958 270.253C262.16 270.176 262.315 270.07 262.423 269.933C262.531 269.797 262.586 269.641 262.589 269.464C262.586 269.3 262.535 269.159 262.435 269.043C262.336 268.923 262.183 268.821 261.975 268.736C261.771 268.648 261.509 268.567 261.191 268.493L260.279 268.28C259.523 268.107 258.928 267.827 258.494 267.44C258.059 267.051 257.843 266.526 257.846 265.864C257.843 265.324 257.988 264.851 258.281 264.445C258.573 264.038 258.978 263.722 259.495 263.494C260.012 263.267 260.602 263.153 261.263 263.153C261.94 263.153 262.526 263.268 263.023 263.499C263.523 263.726 263.911 264.045 264.187 264.457C264.462 264.869 264.603 265.347 264.609 265.889H262.589Z" fill="#263238"/>
</svg>
